<svg version="1.2" baseProfile="tiny-ps" xmlns="http://www.w3.org/2000/svg" viewBox="0 0 70 51"
    width="70" height="51">
    <title>Skylus</title>
    <defs>
        <linearGradient id="grd1" gradientUnits="userSpaceOnUse" x1="35.833" y1="-16.042"
            x2="35.833" y2="39.034">
            <stop offset="0" stop-color="#00c6fb" />
            <stop offset="1" stop-color="#005bea" />
        </linearGradient>
        <linearGradient id="grd2" gradientUnits="userSpaceOnUse" x1="37.063" y1="-16.04" x2="37.063"
            y2="39.042">
            <stop offset="0" stop-color="#00c6fb" />
            <stop offset="1" stop-color="#005bea" />
        </linearGradient>
    </defs>
    <style>
        tspan { white-space:pre }
        .shp0 { fill: url(#grd1) }
        .shp1 { fill: url(#grd2) }
    </style>
    <g id="Layer">
        <g id="Layer">
            <path id="Layer" class="shp0"
                d="M63.28 25.05C61.89 23.65 60.23 22.55 58.41 21.79C56.59 21.04 54.63 20.65 52.66 20.65C50.69 20.65 48.73 21.04 46.91 21.79C45.09 22.55 43.43 23.65 42.04 25.05L25.22 41.87C23.15 43.94 20.18 44.84 17.31 44.27C14.44 43.7 12.04 41.73 10.92 39.03C9.8 36.32 10.11 33.24 11.73 30.8C13.36 28.37 16.09 26.91 19.02 26.91C19.14 26.91 19.27 26.91 19.4 26.92L19.54 26.92C19.9 26.92 20.26 26.85 20.6 26.73C20.95 26.61 21.26 26.42 21.54 26.19C21.82 25.96 22.06 25.68 22.24 25.36C22.42 25.05 22.54 24.7 22.61 24.34L22.61 24.32C22.68 23.88 22.66 23.43 22.55 23C22.44 22.57 22.24 22.17 21.96 21.82C21.68 21.47 21.34 21.19 20.94 20.99C20.54 20.79 20.11 20.68 19.66 20.66C19.44 20.65 19.23 20.64 19.01 20.64C13.99 20.64 9.31 23.15 6.52 27.32C3.73 31.49 3.21 36.78 5.13 41.42C7.05 46.05 11.16 49.42 16.08 50.4C21 51.38 26.09 49.84 29.63 46.29L46.45 29.47C48.52 27.4 51.49 26.5 54.36 27.07C57.23 27.64 59.63 29.6 60.75 32.31C61.87 35.01 61.57 38.1 59.94 40.53C58.32 42.97 55.58 44.43 52.65 44.43C52.52 44.43 52.39 44.42 52.26 44.42C52.13 44.41 52 44.4 51.86 44.39C51.73 44.38 51.6 44.37 51.47 44.35C51.34 44.33 51.21 44.31 51.08 44.29C51.04 44.28 50.99 44.27 50.95 44.27C50.9 44.26 50.85 44.25 50.81 44.25C50.76 44.25 50.72 44.24 50.67 44.24C50.62 44.24 50.58 44.24 50.53 44.24C50.24 44.24 49.94 44.28 49.66 44.37C49.38 44.45 49.11 44.57 48.86 44.73C48.61 44.89 48.39 45.08 48.19 45.3C48 45.52 47.84 45.77 47.71 46.04L47.7 46.06C47.5 46.49 47.4 46.97 47.4 47.44C47.41 47.92 47.53 48.39 47.75 48.81C47.97 49.24 48.28 49.61 48.66 49.89C49.05 50.17 49.49 50.37 49.96 50.45C50.18 50.49 50.41 50.53 50.63 50.56C50.85 50.59 51.08 50.61 51.3 50.63C51.53 50.65 51.75 50.67 51.98 50.68C52.2 50.69 52.43 50.69 52.65 50.69C55.63 50.69 58.53 49.81 61 48.16C63.47 46.51 65.4 44.16 66.53 41.42C67.67 38.67 67.97 35.65 67.39 32.74C66.81 29.83 65.38 27.15 63.28 25.05L63.28 25.05Z" />
            <g id="Layer">
                <path id="Layer" class="shp1"
                    d="M57.16 13.95C56.62 13 56.01 12.1 55.34 11.24C54.66 10.39 53.92 9.59 53.12 8.84C52.32 8.1 51.47 7.42 50.57 6.8C49.67 6.19 48.72 5.64 47.74 5.17C47.01 4.81 46.26 4.5 45.5 4.23C44.74 3.96 43.96 3.73 43.17 3.55C42.38 3.37 41.58 3.23 40.77 3.14C39.96 3.05 39.15 3 38.34 3C38.06 3 37.77 3.01 37.48 3.02C37.25 3.03 37.02 3.04 36.78 3.06C36.55 3.07 36.31 3.09 36.08 3.12C35.85 3.14 35.62 3.17 35.38 3.2C35.15 3.23 34.92 3.27 34.69 3.31C31.87 3.78 29.18 4.8 26.76 6.32C24.34 7.83 22.24 9.81 20.58 12.14C18.92 14.46 17.74 17.09 17.1 19.87C16.46 22.66 16.37 25.54 16.85 28.36C16.91 28.72 17.03 29.07 17.21 29.39C17.39 29.72 17.63 30.01 17.91 30.25C18.19 30.49 18.52 30.68 18.86 30.8C19.21 30.93 19.58 31 19.95 31.01L19.97 31.01L20.1 31.01C20.13 31 20.16 31 20.2 31C20.23 31 20.26 30.99 20.3 30.99C20.33 30.99 20.36 30.98 20.4 30.98C20.43 30.97 20.46 30.97 20.49 30.96C20.91 30.89 21.3 30.74 21.65 30.52C22.01 30.3 22.31 30.01 22.55 29.67C22.8 29.33 22.97 28.95 23.06 28.54C23.16 28.14 23.17 27.72 23.1 27.31C22.77 25.31 22.83 23.27 23.28 21.3C23.73 19.33 24.57 17.47 25.74 15.82C26.92 14.18 28.4 12.78 30.12 11.71C31.83 10.63 33.74 9.91 35.73 9.57C35.9 9.55 36.06 9.52 36.23 9.5C36.39 9.48 36.56 9.46 36.72 9.44C36.89 9.42 37.05 9.41 37.22 9.4C37.38 9.39 37.55 9.38 37.72 9.37C37.91 9.37 38.1 9.36 38.3 9.36C39.65 9.36 40.99 9.54 42.29 9.89C43.6 10.25 44.85 10.77 46.01 11.44C47.18 12.12 48.25 12.95 49.2 13.91C50.16 14.86 50.98 15.94 51.65 17.11C51.79 17.35 51.96 17.57 52.15 17.77C52.35 17.97 52.57 18.14 52.81 18.28C53.05 18.42 53.31 18.53 53.58 18.6C53.85 18.67 54.13 18.71 54.4 18.71C54.45 18.71 54.49 18.71 54.53 18.71C55.07 18.69 55.61 18.53 56.07 18.24C56.53 17.95 56.92 17.55 57.18 17.08C57.45 16.6 57.58 16.06 57.58 15.52C57.58 14.97 57.43 14.43 57.16 13.96L57.16 13.95Z" />
            </g>
        </g>
    </g>
</svg>