<svg version="1.2" xmlns="http://www.w3.org/2000/svg" viewBox="0 0 1348 831" width="1348" height="831"><defs><linearGradient id="P" gradientUnits="userSpaceOnUse"/><linearGradient id="g1" x2="1" href="#P" gradientTransform="matrix(710.393,105.496,-101.139,681.051,160.748,15.3)"><stop offset="0" stop-color="#eff5ff"/><stop offset="1" stop-color="#eff5ff"/></linearGradient><linearGradient id="g2" x2="1" href="#P" gradientTransform="matrix(222.813,0,0,166.636,275.104,186.928)"><stop stop-color="#0a91f2"/><stop offset=".75" stop-color="#004d8a"/></linearGradient><linearGradient id="g3" x2="1" href="#P" gradientTransform="matrix(NaN,NaN,NaN,NaN,NaN,NaN)"><stop stop-color="#0a91f2"/><stop offset=".75" stop-color="#004d8a"/></linearGradient><linearGradient id="g4" x2="1" href="#P" gradientTransform="matrix(NaN,NaN,NaN,NaN,NaN,NaN)"><stop stop-color="#0a91f2"/><stop offset=".75" stop-color="#004d8a"/></linearGradient><linearGradient id="g5" x2="1" href="#P" gradientTransform="matrix(NaN,NaN,NaN,NaN,NaN,NaN)"><stop stop-color="#0a91f2"/><stop offset=".75" stop-color="#004d8a"/></linearGradient><linearGradient id="g6" x2="1" href="#P" gradientTransform="matrix(116.727,-185.823,71.939,45.189,542.601,513.732)"><stop offset=".03" stop-color="#004d8a"/><stop offset="1" stop-color="#c6c"/></linearGradient><linearGradient id="g7" x2="1" href="#P" gradientTransform="matrix(72.428,-67.523,37.325,40.037,718.022,457.29)"><stop offset=".03" stop-color="#004d8a"/><stop offset="1" stop-color="#c6c"/></linearGradient><linearGradient id="g8" x2="1" href="#P" gradientTransform="matrix(102.715,-84.419,38.704,47.093,706.321,556.939)"><stop offset=".03" stop-color="#004d8a"/><stop offset="1" stop-color="#c6c"/></linearGradient><linearGradient id="g9" x2="1" href="#P" gradientTransform="matrix(89.744,-41.848,23.133,49.608,724.49,580.868)"><stop offset=".03" stop-color="#004d8a"/><stop offset="1" stop-color="#c6c"/></linearGradient><linearGradient id="g10" x2="1" href="#P" gradientTransform="matrix(144.673,141.844,-64.698,65.988,138.868,409.075)"><stop offset="0" stop-color="#c6c"/><stop offset=".98" stop-color="#004d8a"/></linearGradient><linearGradient id="g11" x2="1" href="#P" gradientTransform="matrix(68.659,107.217,-68.889,44.114,130.097,574.241)"><stop offset="0" stop-color="#c6c"/><stop offset=".98" stop-color="#004d8a"/></linearGradient><linearGradient id="g12" x2="1" href="#P" gradientTransform="matrix(115.277,56.218,-31.692,64.986,95.906,626.572)"><stop offset="0" stop-color="#c6c"/><stop offset=".98" stop-color="#004d8a"/></linearGradient><linearGradient id="g13" x2="1" href="#P" gradientTransform="matrix(253.531,0,0,428.3,139.488,338.159)"><stop stop-color="#1b6d9b"/><stop offset="1" stop-color="#004d8a"/></linearGradient><linearGradient id="g14" x2="1" href="#P" gradientTransform="matrix(221.692,0,0,90.951,155.407,455.317)"><stop offset="0" stop-color="#00bbf2"/><stop offset=".87" stop-color="#0b87d3"/></linearGradient><linearGradient id="g15" x2="1" href="#P" gradientTransform="matrix(221.692,0,0,90.951,155.407,353.564)"><stop offset="0" stop-color="#00bbf2"/><stop offset=".87" stop-color="#0b87d3"/></linearGradient><linearGradient id="g16" x2="1" href="#P" gradientTransform="matrix(221.692,0,0,90.951,155.407,658.823)"><stop offset="0" stop-color="#00bbf2"/><stop offset=".87" stop-color="#0b87d3"/></linearGradient><linearGradient id="g17" x2="1" href="#P" gradientTransform="matrix(221.692,0,0,90.951,155.407,557.07)"><stop offset="0" stop-color="#00bbf2"/><stop offset=".87" stop-color="#0b87d3"/></linearGradient><linearGradient id="g18" x2="1" href="#P" gradientTransform="matrix(13.983,0,0,74.575,165.035,361.752)"><stop offset=".06" stop-color="#fff"/><stop offset="1" stop-color="#dfe9ed"/></linearGradient><linearGradient id="g19" x2="1" href="#P" gradientTransform="matrix(13.983,0,0,74.575,185.082,361.752)"><stop offset=".06" stop-color="#fff"/><stop offset="1" stop-color="#dfe9ed"/></linearGradient><linearGradient id="g20" x2="1" href="#P" gradientTransform="matrix(13.983,0,0,74.575,205.142,361.752)"><stop offset=".06" stop-color="#fff"/><stop offset="1" stop-color="#dfe9ed"/></linearGradient><linearGradient id="g21" x2="1" href="#P" gradientTransform="matrix(NaN,NaN,NaN,NaN,NaN,NaN)"><stop offset=".06" stop-color="#fff"/><stop offset="1" stop-color="#dfe9ed"/></linearGradient><linearGradient id="g22" x2="1" href="#P" gradientTransform="matrix(NaN,NaN,NaN,NaN,NaN,NaN)"><stop offset=".06" stop-color="#fff"/><stop offset="1" stop-color="#dfe9ed"/></linearGradient><linearGradient id="g23" x2="1" href="#P" gradientTransform="matrix(NaN,NaN,NaN,NaN,NaN,NaN)"><stop offset=".06" stop-color="#fff"/><stop offset="1" stop-color="#dfe9ed"/></linearGradient><linearGradient id="g24" x2="1" href="#P" gradientTransform="matrix(13.983,0,0,74.574,224.73,361.421)"><stop offset=".06" stop-color="#fff"/><stop offset="1" stop-color="#dfe9ed"/></linearGradient><linearGradient id="g25" x2="1" href="#P" gradientTransform="matrix(13.983,0,0,74.574,165.035,463.67)"><stop offset=".06" stop-color="#fff"/><stop offset="1" stop-color="#dfe9ed"/></linearGradient><linearGradient id="g26" x2="1" href="#P" gradientTransform="matrix(13.983,0,0,74.574,185.082,463.67)"><stop offset=".06" stop-color="#fff"/><stop offset="1" stop-color="#dfe9ed"/></linearGradient><linearGradient id="g27" x2="1" href="#P" gradientTransform="matrix(13.983,0,0,74.574,205.142,463.67)"><stop offset=".06" stop-color="#fff"/><stop offset="1" stop-color="#dfe9ed"/></linearGradient><linearGradient id="g28" x2="1" href="#P" gradientTransform="matrix(NaN,NaN,NaN,NaN,NaN,NaN)"><stop offset=".06" stop-color="#fff"/><stop offset="1" stop-color="#dfe9ed"/></linearGradient><linearGradient id="g29" x2="1" href="#P" gradientTransform="matrix(NaN,NaN,NaN,NaN,NaN,NaN)"><stop offset=".06" stop-color="#fff"/><stop offset="1" stop-color="#dfe9ed"/></linearGradient><linearGradient id="g30" x2="1" href="#P" gradientTransform="matrix(NaN,NaN,NaN,NaN,NaN,NaN)"><stop offset=".06" stop-color="#fff"/><stop offset="1" stop-color="#dfe9ed"/></linearGradient><linearGradient id="g31" x2="1" href="#P" gradientTransform="matrix(13.983,0,0,74.574,224.73,463.34)"><stop offset=".06" stop-color="#fff"/><stop offset="1" stop-color="#dfe9ed"/></linearGradient><linearGradient id="g32" x2="1" href="#P" gradientTransform="matrix(13.983,0,0,74.575,165.035,565.424)"><stop offset=".06" stop-color="#fff"/><stop offset="1" stop-color="#dfe9ed"/></linearGradient><linearGradient id="g33" x2="1" href="#P" gradientTransform="matrix(13.983,0,0,74.575,185.082,565.424)"><stop offset=".06" stop-color="#fff"/><stop offset="1" stop-color="#dfe9ed"/></linearGradient><linearGradient id="g34" x2="1" href="#P" gradientTransform="matrix(13.983,0,0,74.575,205.142,565.424)"><stop offset=".06" stop-color="#fff"/><stop offset="1" stop-color="#dfe9ed"/></linearGradient><linearGradient id="g35" x2="1" href="#P" gradientTransform="matrix(NaN,NaN,NaN,NaN,NaN,NaN)"><stop offset=".06" stop-color="#fff"/><stop offset="1" stop-color="#dfe9ed"/></linearGradient><linearGradient id="g36" x2="1" href="#P" gradientTransform="matrix(NaN,NaN,NaN,NaN,NaN,NaN)"><stop offset=".06" stop-color="#fff"/><stop offset="1" stop-color="#dfe9ed"/></linearGradient><linearGradient id="g37" x2="1" href="#P" gradientTransform="matrix(NaN,NaN,NaN,NaN,NaN,NaN)"><stop offset=".06" stop-color="#fff"/><stop offset="1" stop-color="#dfe9ed"/></linearGradient><linearGradient id="g38" x2="1" href="#P" gradientTransform="matrix(13.983,0,0,74.574,224.73,565.093)"><stop offset=".06" stop-color="#fff"/><stop offset="1" stop-color="#dfe9ed"/></linearGradient><linearGradient id="g39" x2="1" href="#P" gradientTransform="matrix(13.983,0,0,74.575,165.035,667.177)"><stop offset=".06" stop-color="#fff"/><stop offset="1" stop-color="#dfe9ed"/></linearGradient><linearGradient id="g40" x2="1" href="#P" gradientTransform="matrix(13.983,0,0,74.575,185.082,667.177)"><stop offset=".06" stop-color="#fff"/><stop offset="1" stop-color="#dfe9ed"/></linearGradient><linearGradient id="g41" x2="1" href="#P" gradientTransform="matrix(13.983,0,0,74.575,205.142,667.177)"><stop offset=".06" stop-color="#fff"/><stop offset="1" stop-color="#dfe9ed"/></linearGradient><linearGradient id="g42" x2="1" href="#P" gradientTransform="matrix(NaN,NaN,NaN,NaN,NaN,NaN)"><stop offset=".06" stop-color="#fff"/><stop offset="1" stop-color="#dfe9ed"/></linearGradient><linearGradient id="g43" x2="1" href="#P" gradientTransform="matrix(NaN,NaN,NaN,NaN,NaN,NaN)"><stop offset=".06" stop-color="#fff"/><stop offset="1" stop-color="#dfe9ed"/></linearGradient><linearGradient id="g44" x2="1" href="#P" gradientTransform="matrix(NaN,NaN,NaN,NaN,NaN,NaN)"><stop offset=".06" stop-color="#fff"/><stop offset="1" stop-color="#dfe9ed"/></linearGradient><linearGradient id="g45" x2="1" href="#P" gradientTransform="matrix(13.983,0,0,74.575,224.73,666.846)"><stop offset=".06" stop-color="#fff"/><stop offset="1" stop-color="#dfe9ed"/></linearGradient><linearGradient id="g46" x2="1" href="#P" gradientTransform="matrix(343.464,0,0,260.176,419.475,463.67)"><stop stop-color="#1b6d9b"/><stop offset="1" stop-color="#004d8a"/></linearGradient><clipPath clipPathUnits="userSpaceOnUse" id="cp1"><path d="m747.18 676.4h-311.94c-2.5 0-4.52-2.02-4.52-4.52v-191.79c0-2.5 2.02-4.52 4.52-4.52h311.94c2.49 0 4.52 2.02 4.52 4.52v191.79c0 2.5-2.03 4.52-4.52 4.52z"/></clipPath><linearGradient id="g47" x2="1" href="#P" gradientTransform="matrix(343.464,0,0,36.488,419.475,687.358)"><stop offset="0" stop-color="#00bbf2"/><stop offset=".87" stop-color="#0b87d3"/></linearGradient><linearGradient id="g48" x2="1" href="#P" gradientTransform="matrix(97.936,0,0,43.627,541.644,723.846)"><stop stop-color="#1b6d9b"/><stop offset="1" stop-color="#004d8a"/></linearGradient><linearGradient id="g49" x2="1" href="#P" gradientTransform="matrix(229.745,0,0,118.349,464.626,116.346)"><stop offset="0" stop-color="#049fe1"/><stop offset="1" stop-color="#004d8a"/></linearGradient><linearGradient id="g50" x2="1" href="#P" gradientTransform="matrix(155.694,0,0,143.1,363.516,516.938)"><stop stop-color="#faffff"/><stop offset="1" stop-color="#caebef"/></linearGradient><linearGradient id="g51" x2="1" href="#P" gradientTransform="matrix(59.866,0,0,59.866,397.827,546.052)"><stop stop-color="#0a91f2"/><stop offset=".75" stop-color="#004d8a"/></linearGradient><linearGradient id="g52" x2="1" href="#P" gradientTransform="matrix(19.184,0,0,22.73,421.897,567.264)"><stop stop-color="#0a91f2"/><stop offset=".75" stop-color="#004d8a"/></linearGradient><linearGradient id="g53" x2="1" href="#P" gradientTransform="matrix(155.694,0,0,134.279,688.36,596.253)"><stop stop-color="#faffff"/><stop offset="1" stop-color="#caebef"/></linearGradient><linearGradient id="g54" x2="1" href="#P" gradientTransform="matrix(79.492,0,0,41.083,719.124,642.596)"><stop stop-color="#0a91f2"/><stop offset=".75" stop-color="#004d8a"/></linearGradient><linearGradient id="g55" x2="1" href="#P" gradientTransform="matrix(16.212,0,0,16.212,764.697,626.781)"><stop stop-color="#0a91f2"/><stop offset=".75" stop-color="#004d8a"/></linearGradient><linearGradient id="g56" x2="1" href="#P" gradientTransform="matrix(121.921,0,0,95.425,676.975,424.295)"><stop stop-color="#faffff"/><stop offset="1" stop-color="#caebef"/></linearGradient><linearGradient id="g57" x2="1" href="#P" gradientTransform="matrix(12.851,0,0,31.056,720.36,448.142)"><stop stop-color="#0a91f2"/><stop offset=".75" stop-color="#004d8a"/></linearGradient><linearGradient id="g58" x2="1" href="#P" gradientTransform="matrix(18.447,0,0,15.279,698.527,456.483)"><stop stop-color="#0a91f2"/><stop offset=".75" stop-color="#004d8a"/></linearGradient><linearGradient id="g59" x2="1" href="#P" gradientTransform="matrix(-18.447,0,0,-15.279,754.056,456.483)"><stop stop-color="#0a91f2"/><stop offset=".75" stop-color="#004d8a"/></linearGradient><linearGradient id="g60" x2="1" href="#P" gradientTransform="matrix(110.367,0,0,93.61,450.094,319.812)"><stop stop-color="#0a91f2"/><stop offset="1" stop-color="#004d8a"/></linearGradient><linearGradient id="g61" x2="1" href="#P" gradientTransform="matrix(100.731,0,0,81.093,454.758,332.329)"><stop offset=".06" stop-color="#fff"/><stop offset="1" stop-color="#dfe9ed"/></linearGradient><linearGradient id="g62" x2="1" href="#P" gradientTransform="matrix(110.367,0,0,75.569,450.094,337.853)"><stop stop-color="#0a91f2"/><stop offset="1" stop-color="#004d8a"/></linearGradient></defs><style>.a{fill:url(#g1)}.b{fill:none;stroke:url(#g2);stroke-linecap:round;stroke-miterlimit:10;stroke-width:2;stroke-dasharray:14}.c{fill:none;stroke:url(#g3);stroke-linecap:round;stroke-miterlimit:10;stroke-width:2}.d{fill:none;stroke:url(#g4);stroke-linecap:round;stroke-miterlimit:10;stroke-width:2;stroke-dasharray:14.58251094818116,14.58251094818116}.e{fill:none;stroke:url(#g5);stroke-linecap:round;stroke-miterlimit:10;stroke-width:2}.f{fill:url(#g6)}.g{fill:none;stroke:#b877f5;stroke-linecap:round;stroke-miterlimit:10;stroke-width:2}.h{fill:url(#g7)}.i{fill:url(#g8)}.j{fill:url(#g9)}.k{fill:url(#g10)}.l{fill:url(#g11)}.m{fill:url(#g12)}.n{fill:url(#g13)}.o{fill:url(#g14)}.p{fill:url(#g15)}.q{fill:url(#g16)}.r{fill:url(#g17)}.s{fill:url(#g18)}.t{fill:url(#g19)}.u{fill:url(#g20)}.v{fill:none;stroke:url(#g21);stroke-linecap:round;stroke-linejoin:round;stroke-width:14}.w{fill:none;stroke:url(#g22);stroke-linecap:round;stroke-linejoin:round;stroke-width:14}.x{fill:none;stroke:url(#g23);stroke-linecap:round;stroke-linejoin:round;stroke-width:14}.y{fill:url(#g24)}.z{fill:url(#g25)}.A{fill:url(#g26)}.B{fill:url(#g27)}.C{fill:none;stroke:url(#g28);stroke-linecap:round;stroke-linejoin:round;stroke-width:14}.D{fill:none;stroke:url(#g29);stroke-linecap:round;stroke-linejoin:round;stroke-width:14}.E{fill:none;stroke:url(#g30);stroke-linecap:round;stroke-linejoin:round;stroke-width:14}.F{fill:url(#g31)}.G{fill:url(#g32)}.H{fill:url(#g33)}.I{fill:url(#g34)}.J{fill:none;stroke:url(#g35);stroke-linecap:round;stroke-linejoin:round;stroke-width:14}.K{fill:none;stroke:url(#g36);stroke-linecap:round;stroke-linejoin:round;stroke-width:14}.L{fill:none;stroke:url(#g37);stroke-linecap:round;stroke-linejoin:round;stroke-width:14}.M{fill:url(#g38)}.N{fill:url(#g39)}.O{fill:url(#g40)}.P{fill:url(#g41)}.Q{fill:none;stroke:url(#g42);stroke-linecap:round;stroke-linejoin:round;stroke-width:14}.R{fill:none;stroke:url(#g43);stroke-linecap:round;stroke-linejoin:round;stroke-width:14}.S{fill:none;stroke:url(#g44);stroke-linecap:round;stroke-linejoin:round;stroke-width:14}.T{fill:url(#g45)}.U{fill:url(#g46)}.V{fill:url(#g47)}.W{fill:url(#g48)}.X{fill:url(#g49)}.Y{fill:#fff}.Z{fill:#7ebde0}.a0{fill:url(#g50)}.a1{fill:none;stroke:url(#g51);stroke-linecap:round;stroke-miterlimit:10;stroke-width:2}.a2{fill:url(#g52)}.a3{fill:url(#g53)}.a4{fill:url(#g54)}.a5{fill:url(#g55)}.a6{fill:url(#g56)}.a7{fill:url(#g57)}.a8{fill:url(#g58)}.a9{fill:url(#g59)}.aa{fill:url(#g60)}.ab{fill:url(#g61)}.ac{fill:url(#g62)}</style><path class="a" d="m558.2 126.3c25.4 77.4 2.2 63.4 118.8 63.3 125.5-0.2 189.4 111.6 146.5 215.9-39.8 96.7-156.1 106.2-127.1 210.9 48.4 174.1-30.8 180.6-238.7 135-182.3-39.9-302.6-30-349.6-112.2-47-82.2 47.3-151.2 17.2-318.4-26-144.6 106.4-140.5 201-219 94.5-78.4 211.5-37.8 231.9 24.5z"/><path class="b" d="m497.9 186.9h-222.8v166.7"/><path class="c" d="m617.5 230.7v7"/><path class="d" d="m617.5 252.3v226"/><path class="e" d="m617.5 485.6v7"/><path class="f" d="m647.3 531.9c0 0-15.6-84.2 42.7-116.4 58.1-32.1 80.1-23.4 89.8-22.3 9.7 1.1-12 12.1-26.2 36.4-14.1 24.3-7.5 47.9-49.1 67.6-41.6 19.8-49 56.5-49 56.5z"/><path class="g" d="m674.4 529.6c0 0-7.3-94.6 75.6-121.3"/><path class="h" d="m736.1 462.5c0 0 8.3-45.2 36.8-43.6 28.6 1.6 36.8 11.6 40.3 13.8 3.6 2.2-6.8 2.6-16.8 9.4-10 6.9-11.7 17.3-31.6 17.4-19.8 0-29.5 13-29.5 13z"/><path class="g" d="m735.3 472.5c0 0 17.1-44.9 60.8-39.3"/><path class="i" d="m748.9 577.6c0 0 4.3-70.6 48.2-73.3 43.9-2.7 58.3 11 64.1 13.8 5.9 2.7-10 5.1-24 17.4-14 12.3-14.8 28.5-45.1 32.3-30.3 3.7-42.7 25.2-42.7 25.2z"/><path class="g" d="m749.4 593c0 0 17.9-71.7 85.7-71"/><path class="j" d="m740.1 591.4c0 0 21.8-40.4 48.5-30.1 26.6 10.4 31.3 22.4 34 25.6 2.7 3.2-7.3 0.3-18.9 3.7-11.6 3.5-16.5 12.9-35.4 6.8-18.9-6.1-32 3.3-32 3.3z"/><path class="g" d="m736.3 600.7c0 0 30-37.5 69.9-18.6"/><path class="k" d="m151 568.9c0 0 23-89.2-30.4-110.2-53.4-21-76.7-9.6-85-8.6-8.4 1 10.4 10.3 22.9 31.2 12.4 20.9 6.8 41.3 42.9 58.1 36.1 16.7 42.8 48.4 42.8 48.4z"/><path class="g" d="m144.2 587.8c0 0 6.5-96.1-77.8-122.4"/><path class="l" d="m164.3 667.7c0 0-4.4-71.6-49-74.4-44.6-2.8-59.1 11.2-65.1 14-5.9 2.7 10.3 5.1 24.5 17.6 14.2 12.5 14.9 29 45.7 32.8 30.8 3.8 43.3 25.6 43.3 25.6z"/><path class="g" d="m163.7 683.3c0 0-18.1-72.8-87-72.1"/><path class="m" d="m173.2 681.8c0 0-22.1-41.1-49.2-30.6-27 10.5-31.8 22.7-34.6 26-2.7 3.2 7.5 0.2 19.3 3.7 11.8 3.5 16.7 13.1 35.9 6.9 19.2-6.2 32.5 3.3 32.5 3.3z"/><path class="g" d="m177.1 691.1c0 0-30.5-38-71-18.8"/><path class="n" d="m382 766.5h-231.4c-6.2 0-11.1-5-11.1-11.1v-406.2c0-6.1 4.9-11 11.1-11h231.4c6.1 0 11 4.9 11 11v406.2c0 6.1-4.9 11.1-11 11.1z"/><path class="o" d="m373.5 546.3h-214.5c-2 0-3.6-1.7-3.6-3.7v-83.7c0-2 1.6-3.6 3.6-3.6h214.5c2 0 3.6 1.6 3.6 3.6v83.7c0 2-1.6 3.7-3.6 3.7z"/><path class="p" d="m373.5 444.5h-214.5c-2 0-3.6-1.6-3.6-3.6v-83.7c0-2 1.6-3.6 3.6-3.6h214.5c2 0 3.6 1.6 3.6 3.6v83.7c0 2-1.6 3.6-3.6 3.6z"/><path class="q" d="m373.5 749.8h-214.5c-2 0-3.6-1.6-3.6-3.6v-83.8c0-2 1.6-3.6 3.6-3.6h214.5c2 0 3.6 1.6 3.6 3.6v83.8c0 2-1.6 3.6-3.6 3.6z"/><path class="r" d="m373.5 648h-214.5c-2 0-3.6-1.6-3.6-3.6v-83.7c0-2 1.6-3.6 3.6-3.6h214.5c2 0 3.6 1.6 3.6 3.6v83.7c0 2-1.6 3.6-3.6 3.6z"/><path class="s" d="m175.9 436.3h-7.7c-1.7 0-3.2-1.4-3.2-3.1v-68.3c0-1.7 1.5-3.1 3.2-3.1h7.7c1.7 0 3.1 1.4 3.1 3.1v68.3c0 1.7-1.4 3.1-3.1 3.1z"/><path class="t" d="m195.9 436.3h-7.7c-1.7 0-3.1-1.4-3.1-3.1v-68.3c0-1.7 1.4-3.1 3.1-3.1h7.7c1.7 0 3.2 1.4 3.2 3.1v68.3c0 1.7-1.5 3.1-3.2 3.1z"/><path class="u" d="m216 436.3h-7.7c-1.7 0-3.2-1.4-3.2-3.1v-68.3c0-1.7 1.5-3.1 3.2-3.1h7.7c1.7 0 3.1 1.4 3.1 3.1v68.3c0 1.7-1.4 3.1-3.1 3.1z"/><path class="v" d=""/><path class="w" d=""/><path class="x" d=""/><path class="y" d="m235.6 436h-7.7c-1.8 0-3.2-1.4-3.2-3.2v-68.2c0-1.8 1.4-3.2 3.2-3.2h7.7c1.7 0 3.1 1.4 3.1 3.2v68.2c0 1.8-1.4 3.2-3.1 3.2z"/><path class="z" d="m175.9 538.2h-7.7c-1.7 0-3.2-1.4-3.2-3.1v-68.3c0-1.7 1.5-3.1 3.2-3.1h7.7c1.7 0 3.1 1.4 3.1 3.1v68.3c0 1.7-1.4 3.1-3.1 3.1z"/><path class="A" d="m195.9 538.2h-7.7c-1.7 0-3.1-1.4-3.1-3.1v-68.3c0-1.7 1.4-3.1 3.1-3.1h7.7c1.7 0 3.2 1.4 3.2 3.1v68.3c0 1.7-1.5 3.1-3.2 3.1z"/><path class="B" d="m216 538.2h-7.7c-1.7 0-3.2-1.4-3.2-3.1v-68.3c0-1.7 1.5-3.1 3.2-3.1h7.7c1.7 0 3.1 1.4 3.1 3.1v68.3c0 1.7-1.4 3.1-3.1 3.1z"/><path class="C" d=""/><path class="D" d=""/><path class="E" d=""/><path class="F" d="m235.6 537.9h-7.7c-1.8 0-3.2-1.4-3.2-3.1v-68.3c0-1.7 1.4-3.2 3.2-3.2h7.7c1.7 0 3.1 1.5 3.1 3.2v68.3c0 1.7-1.4 3.1-3.1 3.1z"/><path class="G" d="m175.9 640h-7.7c-1.7 0-3.2-1.4-3.2-3.2v-68.2c0-1.8 1.5-3.2 3.2-3.2h7.7c1.7 0 3.1 1.4 3.1 3.2v68.2c0 1.8-1.4 3.2-3.1 3.2z"/><path class="H" d="m195.9 640h-7.7c-1.7 0-3.1-1.4-3.1-3.2v-68.2c0-1.8 1.4-3.2 3.1-3.2h7.7c1.7 0 3.2 1.4 3.2 3.2v68.2c0 1.8-1.5 3.2-3.2 3.2z"/><path class="I" d="m216 640h-7.7c-1.7 0-3.2-1.4-3.2-3.2v-68.2c0-1.8 1.5-3.2 3.2-3.2h7.7c1.7 0 3.1 1.4 3.1 3.2v68.2c0 1.8-1.4 3.2-3.1 3.2z"/><path class="J" d=""/><path class="K" d=""/><path class="L" d=""/><path class="M" d="m235.6 639.7h-7.7c-1.8 0-3.2-1.4-3.2-3.2v-68.2c0-1.8 1.4-3.2 3.2-3.2h7.7c1.7 0 3.1 1.4 3.1 3.2v68.2c0 1.8-1.4 3.2-3.1 3.2z"/><path class="N" d="m175.9 741.8h-7.7c-1.7 0-3.2-1.5-3.2-3.2v-68.3c0-1.7 1.5-3.1 3.2-3.1h7.7c1.7 0 3.1 1.4 3.1 3.1v68.3c0 1.7-1.4 3.2-3.1 3.2z"/><path class="O" d="m195.9 741.8h-7.7c-1.7 0-3.1-1.5-3.1-3.2v-68.3c0-1.7 1.4-3.1 3.1-3.1h7.7c1.7 0 3.2 1.4 3.2 3.1v68.3c0 1.7-1.5 3.2-3.2 3.2z"/><path class="P" d="m216 741.8h-7.7c-1.7 0-3.2-1.5-3.2-3.2v-68.3c0-1.7 1.5-3.1 3.2-3.1h7.7c1.7 0 3.1 1.4 3.1 3.1v68.3c0 1.7-1.4 3.2-3.1 3.2z"/><path class="Q" d=""/><path class="R" d=""/><path class="S" d=""/><path class="T" d="m235.6 741.4h-7.7c-1.8 0-3.2-1.4-3.2-3.1v-68.3c0-1.7 1.4-3.2 3.2-3.2h7.7c1.7 0 3.1 1.5 3.1 3.2v68.3c0 1.7-1.4 3.1-3.1 3.1z"/><path class="U" d="m752 723.8h-321.6c-6 0-10.9-4.9-10.9-10.9v-238.3c0-6 4.9-10.9 10.9-10.9h321.6c6 0 10.9 4.9 10.9 10.9v238.3c0 6-4.9 10.9-10.9 10.9z"/><g clip-path="url(#cp1)"></g><path class="V" d="m752 723.8h-321.6c-6 0-10.9-4.9-10.9-10.9v-25.5h343.4v25.5c0 6-4.9 10.9-10.9 10.9z"/><path class="W" d="m625.9 741.9v-18.1h-70.6v18.1c0 8.4-4.6 16.1-12.1 20-2.7 1.5-1.7 5.6 1.4 5.6h10.7 70.6 10.7c3.1 0 4.1-4.1 1.4-5.6-7.4-3.9-12.1-11.6-12.1-20z"/><path class="X" d="m664.8 171.5c-4.7 0-9.1 1.2-13.1 3.3-1.2-16.1-13.8-28.9-29.2-28.9-1.7 0-3.2 0.2-4.8 0.5-5.2-17.4-20.5-30.1-38.5-30.1-18.1 0-33.4 12.7-38.6 30.2q-2.7-0.6-5.6-0.6c-15.2 0-27.7 12.3-29.2 28.2-3.6-1.7-7.5-2.6-11.7-2.6-16.3 0-29.5 14.1-29.5 31.6 0 17.4 13.2 31.6 29.5 31.6 2.4 0 6.9 0 6.9 0h163.8c16.4 0 29.6-14.2 29.6-31.6 0-17.5-13.2-31.6-29.6-31.6z"/><path class="Y" d="m574.9 177.2l-12.4-14.4c-1.3-1.5-3.6-1.5-4.9 0l-12.4 14.4c-1.8 2.1-0.3 5.3 2.4 5.3h2.5c0.5 0 1 0.5 1 1.1v28.8c0 1.7 1.4 3.2 3.2 3.2h11.5c1.8 0 3.2-1.5 3.2-3.2v-28.8c0-0.6 0.5-1.1 1.1-1.1h2.4c2.8 0 4.2-3.2 2.4-5.3z"/><path class="Y" d="m584.1 198.3l12.4 14.5c1.3 1.4 3.6 1.4 4.9 0l12.4-14.5c1.8-2 0.3-5.3-2.4-5.3h-2c-0.8 0-1.5-0.6-1.5-1.5v-28.3c0-1.8-1.5-3.2-3.2-3.2h-11.5c-1.8 0-3.2 1.4-3.2 3.2v28.8c0 0.6-0.5 1-1.1 1h-2.4c-2.8 0-4.2 3.3-2.4 5.3z"/><path class="Z" d="m486.7 516.9h-8.1c6.2 0 11.2 5 11.2 11.2v95.7c0 6.2-5 11.2-11.2 11.2h8.1c6.2 0 11.2-5 11.2-11.2v-95.7c0-6.2-5-11.2-11.2-11.2z"/><path class="a0" d="m482.5 635h-109.5c-5.2 0-9.5-4.2-9.5-9.5v-99c0-5.3 4.3-9.6 9.5-9.6h109.5c5.2 0 9.5 4.3 9.5 9.6v99c0 5.3-4.3 9.5-9.5 9.5z"/><path class="a1" d="m457.7 576c0 16.5-13.4 29.9-29.9 29.9-16.6 0-30-13.4-30-29.9 0-16.5 13.4-29.9 30-29.9 16.5 0 29.9 13.4 29.9 29.9z"/><path class="a2" d="m421.9 569.2v14.8c0 1.6 1.7 2.5 3 1.7l11.9-7.4c1.2-0.8 1.2-2.6 0-3.3l-11.9-7.4c-1.3-0.9-3 0.1-3 1.6z"/><path class="Z" d="m811.6 596.3h-8.1c6.2 0 11.2 4.7 11.2 10.5v89.8c0 5.8-5 10.5-11.2 10.5h8.1c6.2 0 11.2-4.7 11.2-10.5v-89.8c0-5.8-5-10.5-11.2-10.5z"/><path class="a3" d="m807.3 707.1h-109.4c-5.3 0-9.5-4.3-9.5-9.6v-91.7c0-5.3 4.2-9.5 9.5-9.5h109.4c5.3 0 9.5 4.2 9.5 9.5v91.7c0 5.3-4.2 9.6-9.5 9.6z"/><path class="a4" d="m719.5 672.9l24.9-29.7c0.7-0.8 1.9-0.8 2.6 0l14.2 16.9c0.7 0.9 2.1 0.8 2.7-0.1l4.6-6.3c0.7-1 2.2-0.9 2.9 0.1l13 20c0.8 1.2 0 2.7-1.4 2.7l-62.1-0.8c-1.5 0-2.3-1.7-1.4-2.8z"/><path class="a5" d="m778.1 633.5c0 3.7-3 6.7-6.7 6.7-3.7 0-6.7-3-6.7-6.7 0-3.7 3-6.7 6.7-6.7 3.7 0 6.7 3 6.7 6.7z"/><path class="Z" d="m773.5 424.3h-6.4c4.9 0 8.8 3.3 8.8 7.5v63.8c0 4.1-3.9 7.4-8.8 7.4h6.4c4.8 0 8.7-3.3 8.7-7.4v-63.8c0-4.2-3.9-7.5-8.7-7.5z"/><path class="a6" d="m768.1 503h-81.6c-5.3 0-9.5-4.2-9.5-9.5v-59.7c0-5.2 4.2-9.5 9.5-9.5h81.6c5.2 0 9.5 4.3 9.5 9.5v59.7c0 5.3-4.3 9.5-9.5 9.5z"/><path class="a7" d="m721.3 479.2q-0.1 0-0.3-0.1c-0.5-0.2-0.8-0.7-0.6-1.2l10.9-29.1c0.2-0.5 0.8-0.8 1.3-0.6 0.5 0.2 0.7 0.8 0.5 1.3l-10.9 29.1c-0.1 0.4-0.5 0.6-0.9 0.6z"/><path class="a8" d="m716 471.8q-0.2 0-0.4-0.1l-16.7-7c-0.5-0.2-0.5-0.8 0-1l16.5-7.1c0.5-0.2 1.1 0 1.3 0.5 0.2 0.5 0 1-0.5 1.3l-12.3 5.3c-0.5 0.2-0.5 0.8 0 1l12.5 5.2c0.5 0.2 0.7 0.8 0.5 1.3-0.2 0.3-0.5 0.6-0.9 0.6z"/><path class="a9" d="m736.6 471.8q0.2 0 0.4-0.1l16.7-7c0.5-0.2 0.5-0.8 0-1l-16.5-7.1c-0.5-0.2-1.1 0-1.3 0.5-0.2 0.5 0 1 0.5 1.3l12.3 5.3c0.5 0.2 0.5 0.8 0 1l-12.5 5.2c-0.5 0.2-0.7 0.8-0.5 1.3 0.1 0.3 0.5 0.6 0.9 0.6z"/><path class="aa" d="m503.4 323c0-1.7-1.4-3.2-3.2-3.2h-46.9c-1.8 0-3.2 1.5-3.2 3.2v3.3 7.4 76.5c0 1.8 1.4 3.2 3.2 3.2h103.9c1.8 0 3.3-1.4 3.3-3.2v-80.7c0-1.8-1.5-3.2-3.3-3.2h-50.6c-1.7 0-3.2-1.5-3.2-3.3z"/><path class="ab" d="m555.5 413.4h-100.7v-81.1h100.7z"/><path class="ac" d="m502.3 342.8c0 2.8-2.3 5-5 5h-42.2c-2.8 0-5 2.2-5 5v55.7c0 2.7 2.2 4.9 5 4.9h100.4c2.7 0 5-2.2 5-4.9v-56.1-4.6-5c0-2.7-2.3-4.9-5-4.9h-48.3c-2.7 0-4.9 2.2-4.9 4.9z"/></svg>