<svg version="1.2" xmlns="http://www.w3.org/2000/svg" viewBox="0 0 183 51" width="183" height="51"><defs><linearGradient id="P" gradientUnits="userSpaceOnUse"/><linearGradient id="g1" x2="1" href="#P" gradientTransform="matrix(0,55.076,-116.735,0,31.833,-16.042)"><stop stop-color="#fff"/><stop offset="1" stop-color="#fff"/></linearGradient><linearGradient id="g2" x2="1" href="#P" gradientTransform="matrix(0,55.082,-80.713,0,33.063,-16.04)"><stop stop-color="#fff"/><stop offset="1" stop-color="#fff"/></linearGradient></defs><style>.a{fill:#fff}.b{fill:url(#g1)}.c{fill:url(#g2)}</style><path class="a" d="m91.4 11.5q0 0.1-0.1 0.1 0 0.1-0.1 0.2 0 0-0.1 0.1-0.1 0.1-0.1 0.1-0.1 0.1-0.2 0.1-0.1 0-0.1 0.1-0.1 0-0.2 0-0.1 0-0.2 0-0.1 0-0.2 0-0.1 0-0.2-0.1-0.1 0-0.2-0.1-0.1 0-0.2-0.1-0.4-0.3-1.1-0.6-0.1-0.1-0.3-0.2-0.2-0.1-0.4-0.2-0.1 0-0.3-0.1-0.2-0.1-0.4-0.1-0.2-0.1-0.5-0.2-0.2 0-0.5-0.1-0.2 0-0.5 0-0.2 0-0.5 0-0.2 0-0.4 0-0.2 0-0.5 0-0.2 0.1-0.4 0.1-0.2 0.1-0.4 0.1-0.2 0.1-0.4 0.2-0.2 0-0.3 0.1-0.2 0.1-0.3 0.2-0.2 0.1-0.3 0.2-0.2 0.1-0.3 0.2-0.1 0.2-0.2 0.3-0.1 0.1-0.2 0.3 0 0.1-0.1 0.3-0.1 0.1-0.1 0.3-0.1 0.1-0.1 0.3 0 0.2 0 0.4-0.1 0.1-0.1 0.3 0 0.2 0.1 0.4 0 0.2 0.1 0.4 0 0.2 0.1 0.4 0.1 0.2 0.3 0.3 0.1 0.2 0.3 0.4 0.1 0.1 0.3 0.2 0.2 0.2 0.4 0.3 0.1 0.1 0.3 0.2 0.3 0.1 0.5 0.2 0.3 0.1 0.5 0.2 0.2 0.1 0.5 0.2 0.2 0.1 0.5 0.2 1.1 0.3 2.2 0.7 0.3 0.1 0.6 0.2 0.3 0.1 0.6 0.2 0.2 0.2 0.5 0.3 0.3 0.1 0.6 0.2 0.2 0.2 0.5 0.3 0.2 0.2 0.5 0.3 0.2 0.2 0.5 0.4 0.2 0.1 0.4 0.3 0.2 0.2 0.4 0.5 0.2 0.2 0.4 0.4 0.2 0.3 0.3 0.5 0.2 0.3 0.3 0.6 0.1 0.3 0.2 0.7 0.1 0.3 0.2 0.6 0.1 0.4 0.1 0.8 0 0.3 0 0.7 0 0.4 0 0.8-0.1 0.4-0.1 0.9-0.1 0.4-0.2 0.8-0.1 0.4-0.3 0.8-0.1 0.4-0.3 0.8-0.2 0.3-0.4 0.7-0.3 0.3-0.5 0.6-0.3 0.3-0.6 0.6-0.3 0.3-0.6 0.6-0.4 0.3-0.7 0.5-0.4 0.2-0.8 0.4-0.4 0.2-0.8 0.3-0.4 0.2-0.9 0.3-0.5 0.2-1 0.3-0.4 0-0.9 0.1-0.5 0-1 0-0.3 0-0.7 0-0.3 0-0.6-0.1-0.3 0-0.6 0-0.3-0.1-0.6-0.1-0.3-0.1-0.6-0.2-0.3 0-0.6-0.1-0.3-0.1-0.6-0.2-0.3-0.1-0.5-0.2-0.3-0.1-0.6-0.3-0.3-0.1-0.5-0.2-0.3-0.2-0.5-0.3-0.3-0.2-0.5-0.3-0.3-0.2-0.5-0.3-0.2-0.2-0.5-0.4-0.2-0.2-0.4-0.4-0.2-0.1-0.4-0.3l1.4-2.4q0.1-0.1 0.1-0.1 0.1-0.1 0.2-0.1 0-0.1 0.1-0.1 0-0.1 0.1-0.1 0.1-0.1 0.2-0.1 0 0 0.1-0.1 0.1 0 0.2 0 0.1 0 0.1 0 0.2 0 0.3 0 0.1 0.1 0.3 0.1 0.1 0.1 0.2 0.1 0.1 0.1 0.2 0.2 0.5 0.3 1.3 0.8 0.2 0.1 0.4 0.2 0.2 0.2 0.4 0.3 0.2 0.1 0.4 0.2 0.3 0 0.5 0.1 0.3 0.1 0.5 0.2 0.3 0.1 0.6 0.1 0.3 0.1 0.6 0.1 0.3 0 0.6 0 0.4 0 0.9 0 0.4-0.1 0.8-0.2 0.4-0.1 0.8-0.3 0.4-0.2 0.8-0.5 0.3-0.3 0.5-0.6 0.2-0.3 0.4-0.7 0.1-0.4 0.2-0.7 0-0.4 0-0.8 0-0.3 0-0.5 0-0.2-0.1-0.4-0.1-0.2-0.2-0.4-0.1-0.2-0.2-0.4-0.2-0.2-0.3-0.4-0.2-0.1-0.3-0.3-0.2-0.1-0.4-0.2-0.2-0.1-0.4-0.2-0.2-0.1-0.5-0.3-0.2-0.1-0.4-0.2-0.3-0.1-0.5-0.1-0.3-0.1-0.5-0.2-1.1-0.3-2.3-0.7-0.2-0.1-0.5-0.2-0.3-0.1-0.6-0.2-0.3-0.1-0.5-0.2-0.3-0.1-0.6-0.2-0.2-0.2-0.5-0.3-0.3-0.2-0.5-0.3-0.3-0.2-0.5-0.4-0.2-0.2-0.4-0.4-0.3-0.2-0.4-0.4-0.2-0.3-0.4-0.5-0.2-0.3-0.3-0.5-0.2-0.3-0.3-0.6-0.1-0.4-0.2-0.7-0.1-0.4-0.2-0.8-0.1-0.4-0.1-0.8 0-0.4 0-0.7 0-0.8 0.1-1.5 0.2-0.7 0.5-1.4 0.3-0.7 0.7-1.3 0.4-0.6 0.9-1.1 0.3-0.2 0.6-0.5 0.3-0.2 0.7-0.4 0.3-0.3 0.7-0.4 0.3-0.2 0.7-0.4 0.5-0.1 0.9-0.3 0.5-0.1 0.9-0.2 0.5 0 1-0.1 0.4 0 0.9 0 0.5 0 1.1 0 0.5 0.1 1.1 0.2 0.5 0.1 1 0.2 0.6 0.1 1.1 0.3 0.5 0.2 0.9 0.4 0.4 0.2 0.9 0.5 0.4 0.2 0.8 0.5 0.4 0.3 0.7 0.7z"/><path class="a" d="m102 6v15.5h0.8q0.1 0 0.2 0 0.1-0.1 0.2-0.1 0.1 0 0.2 0 0.1 0 0.2-0.1 0 0 0.1-0.1 0.1 0 0.1-0.1 0.1 0 0.2-0.1 0-0.1 0.1-0.1l4.6-5.8q0.1-0.1 0.2-0.2 0 0 0.1-0.1 0.1-0.1 0.2-0.1 0.1-0.1 0.2-0.2 0.1 0 0.2-0.1 0.1 0 0.2 0 0.1-0.1 0.3-0.1 0.1 0 0.2 0h4.1l-5.8 7q-0.1 0.2-0.3 0.3-0.1 0.2-0.3 0.4-0.2 0.1-0.4 0.3-0.1 0.1-0.3 0.2 0.1 0.1 0.1 0.2 0.1 0 0.2 0.1 0.1 0.1 0.2 0.2 0.1 0.1 0.1 0.2 0.1 0.1 0.2 0.2 0.1 0 0.1 0.1 0.1 0.1 0.2 0.2 0 0.1 0.1 0.2l6.2 9.1h-4q-0.1 0-0.3 0-0.1 0-0.2 0-0.1 0-0.2-0.1-0.1 0-0.2-0.1-0.1 0-0.2-0.1-0.1 0-0.2-0.1-0.1-0.1-0.2-0.2 0-0.1-0.1-0.2l-4.7-7.1q-0.1-0.1-0.1-0.1-0.1-0.1-0.2-0.2 0 0-0.1-0.1-0.1-0.1-0.2-0.1-0.1-0.1-0.2-0.1-0.1 0-0.2 0-0.1 0-0.2 0-0.1 0-0.2 0h-1v8.5h-4.5v-27z"/><path class="a" d="m135 14.3l-10.2 23.8q0 0.2 0 0.3-0.1 0.1-0.2 0.1 0 0.1-0.1 0.2-0.1 0.1-0.2 0.2-0.1 0-0.2 0.1-0.1 0-0.2 0.1-0.2 0-0.3 0-0.1 0-0.2 0h-3.4l3.5-7.5-7.6-17.3h4q0.1 0 0.2 0 0.1 0.1 0.2 0.1 0.1 0 0.2 0.1 0.1 0 0.2 0.1 0.1 0 0.2 0.1 0 0.1 0.1 0.2 0 0 0.1 0.1 0 0.1 0.1 0.2l3.9 9.7q0.1 0.1 0.1 0.2 0.1 0.1 0.1 0.2 0.1 0.2 0.1 0.3 0 0.1 0.1 0.2 0.1 0.5 0.2 1 0.2-0.5 0.4-1 0.1-0.5 0.3-1l3.8-9.6q0-0.1 0.1-0.2 0-0.1 0.1-0.2 0 0 0.1-0.1 0.1-0.1 0.2-0.1 0-0.1 0.1-0.1 0.1-0.1 0.2-0.1 0.1 0 0.2-0.1 0.1 0 0.2 0z"/><path class="a" d="m142.9 6v27h-4.5v-27z"/><path class="a" d="m164.6 14.3v18.7h-2.8q-0.2 0-0.3 0-0.2-0.1-0.4-0.2-0.1-0.1-0.2-0.3-0.1-0.1-0.2-0.3l-0.3-1.5q-0.3 0.3-0.6 0.5-0.3 0.3-0.6 0.5-0.3 0.3-0.6 0.5-0.4 0.2-0.7 0.4-0.4 0.2-0.8 0.3-0.4 0.2-0.8 0.2-0.4 0.1-0.8 0.2-0.5 0-0.9 0-0.3 0-0.7 0-0.3 0-0.7-0.1-0.3-0.1-0.6-0.2-0.4-0.1-0.7-0.2-0.3-0.1-0.5-0.3-0.3-0.1-0.6-0.3-0.2-0.2-0.4-0.4-0.3-0.2-0.5-0.5-0.2-0.2-0.4-0.5-0.1-0.3-0.3-0.5-0.1-0.3-0.3-0.6-0.1-0.3-0.2-0.6-0.1-0.4-0.2-0.7 0-0.4-0.1-0.7 0-0.4-0.1-0.8 0-0.3 0-0.7v-11.9h4.5v11.9q0 0.4 0 0.7 0.1 0.4 0.2 0.7 0.1 0.3 0.2 0.7 0.2 0.3 0.4 0.6 0.2 0.2 0.5 0.4 0.3 0.2 0.6 0.3 0.3 0.1 0.6 0.2 0.4 0 0.7 0 0.3 0 0.5 0 0.3-0.1 0.6-0.1 0.3-0.1 0.6-0.2 0.2-0.1 0.5-0.2 0.2-0.2 0.5-0.3 0.2-0.2 0.5-0.4 0.2-0.1 0.5-0.3 0.2-0.2 0.4-0.5v-13.5z"/><path class="a" d="m181.5 18q0 0-0.1 0.1 0 0.1 0 0.1-0.1 0.1-0.1 0.1-0.1 0-0.2 0.1 0 0-0.1 0 0 0.1-0.1 0.1-0.1 0-0.1 0-0.1 0-0.2 0-0.1 0-0.2 0 0 0-0.1 0-0.1-0.1-0.2-0.1-0.1 0-0.2-0.1-0.3-0.2-0.8-0.4-0.2 0-0.3-0.1-0.1-0.1-0.3-0.1-0.1-0.1-0.3-0.1-0.1-0.1-0.3-0.1-0.1 0-0.3-0.1-0.2 0-0.4 0-0.2-0.1-0.4-0.1-0.2 0-0.3 0-0.3 0-0.6 0-0.3 0.1-0.5 0.1-0.3 0.1-0.5 0.2-0.3 0.1-0.5 0.3-0.2 0.1-0.3 0.3-0.2 0.1-0.3 0.3-0.1 0.2-0.1 0.4-0.1 0.2-0.1 0.5 0 0.1 0 0.2 0.1 0.2 0.1 0.3 0.1 0.1 0.1 0.3 0.1 0.1 0.2 0.2 0.1 0.1 0.2 0.2 0.2 0.1 0.3 0.2 0.1 0.1 0.3 0.1 0.1 0.1 0.2 0.2 0.2 0.1 0.4 0.1 0.2 0.1 0.4 0.2 0.2 0.1 0.3 0.1 0.2 0.1 0.4 0.1 0.8 0.3 1.7 0.6 0.8 0.3 1.6 0.6 0.2 0.1 0.4 0.2 0.2 0.1 0.4 0.3 0.2 0.1 0.4 0.2 0.1 0.1 0.3 0.3 0.2 0.1 0.3 0.3 0.2 0.2 0.3 0.3 0.1 0.2 0.2 0.4 0.2 0.2 0.3 0.4 0.1 0.2 0.1 0.4 0.1 0.3 0.2 0.5 0 0.3 0 0.5 0 0.2 0 0.5 0 0.3 0 0.6 0 0.4-0.1 0.7 0 0.3-0.1 0.6-0.1 0.3-0.2 0.6-0.2 0.3-0.3 0.5-0.2 0.3-0.3 0.5-0.2 0.3-0.4 0.5-0.2 0.2-0.5 0.4-0.2 0.3-0.5 0.5-0.3 0.1-0.6 0.3-0.3 0.2-0.6 0.3-0.3 0.1-0.6 0.2-0.4 0.2-0.8 0.3-0.4 0-0.8 0.1-0.4 0.1-0.8 0.1-0.4 0-0.8 0-0.3 0-0.5 0-0.2 0-0.5 0-0.2-0.1-0.4-0.1-0.3 0-0.5-0.1-0.2 0-0.5-0.1-0.2 0-0.4-0.1-0.2 0-0.4-0.1-0.3-0.1-0.5-0.2-0.2 0-0.4-0.1-0.2-0.1-0.4-0.2-0.2-0.1-0.4-0.2-0.2-0.1-0.3-0.2-0.2-0.1-0.4-0.2-0.1-0.1-0.3-0.2-0.2-0.1-0.3-0.2-0.2-0.2-0.3-0.3l1-1.7q0.1-0.1 0.1-0.1 0.1-0.1 0.1-0.2 0.1 0 0.2-0.1 0 0 0.1-0.1 0.1 0 0.2 0 0.1-0.1 0.1-0.1 0.1 0 0.2 0 0.1 0 0.2 0 0.1 0 0.2 0 0.1 0 0.2 0 0.1 0.1 0.2 0.1 0.1 0 0.2 0.1 0.4 0.2 0.9 0.5 0.1 0.1 0.2 0.2 0.2 0 0.3 0.1 0.2 0.1 0.3 0.1 0.2 0.1 0.3 0.1 0.2 0.1 0.4 0.1 0.2 0.1 0.4 0.1 0.3 0 0.5 0 0.2 0.1 0.4 0.1 0.2 0 0.3-0.1 0.2 0 0.4 0 0.2 0 0.3 0 0.2-0.1 0.4-0.1 0.1-0.1 0.2-0.1 0.1-0.1 0.3-0.1 0.1-0.1 0.2-0.2 0.1-0.1 0.2-0.1 0.1-0.1 0.2-0.2 0.1-0.1 0.1-0.2 0.1-0.1 0.2-0.2 0-0.1 0.1-0.2 0-0.1 0-0.2 0.1-0.1 0.1-0.2 0-0.1 0-0.2 0-0.1 0-0.2 0-0.1 0-0.3 0-0.1-0.1-0.3 0-0.1-0.1-0.2-0.1-0.2-0.2-0.3-0.1-0.1-0.2-0.2-0.1-0.1-0.2-0.2-0.2-0.1-0.3-0.2-0.1 0-0.3-0.1-0.2-0.1-0.4-0.2-0.1 0-0.3-0.1-0.2-0.1-0.4-0.1-0.2-0.1-0.4-0.2-0.8-0.2-1.7-0.5-0.2-0.1-0.4-0.1-0.2-0.1-0.4-0.2-0.2-0.1-0.4-0.2-0.2-0.1-0.5-0.2-0.2-0.1-0.4-0.2-0.1-0.1-0.3-0.2-0.2-0.1-0.4-0.3-0.2-0.1-0.3-0.3-0.2-0.1-0.3-0.3-0.2-0.2-0.3-0.4-0.2-0.1-0.3-0.3-0.1-0.2-0.2-0.4-0.1-0.3-0.1-0.6-0.1-0.2-0.2-0.5 0-0.2 0-0.5-0.1-0.3-0.1-0.6 0-0.2 0.1-0.5 0-0.3 0.1-0.6 0-0.3 0.1-0.5 0.1-0.3 0.2-0.5 0.1-0.3 0.3-0.5 0.1-0.3 0.3-0.5 0.1-0.3 0.3-0.5 0.2-0.2 0.4-0.4 0.3-0.2 0.5-0.3 0.3-0.2 0.6-0.4 0.3-0.1 0.5-0.3 0.3-0.1 0.6-0.2 0.4-0.1 0.8-0.2 0.4-0.1 0.7-0.2 0.4 0 0.8 0 0.4-0.1 0.8-0.1 0.4 0 0.9 0.1 0.4 0 0.9 0.1 0.4 0.1 0.8 0.2 0.5 0.1 0.9 0.3 0.4 0.1 0.7 0.3 0.4 0.2 0.7 0.4 0.3 0.2 0.6 0.4 0.4 0.3 0.6 0.6z"/><path class="b" d="m59.3 25c-1.4-1.3-3.1-2.5-4.9-3.2-1.8-0.8-3.8-1.2-5.7-1.2-2 0-4 0.4-5.8 1.2-1.8 0.7-3.5 1.9-4.9 3.2l-16.8 16.9c-2 2-5 2.9-7.9 2.4-2.9-0.6-5.3-2.6-6.4-5.3-1.1-2.7-0.8-5.8 0.8-8.2 1.7-2.4 4.4-3.9 7.3-3.9q0.2 0 0.4 0h0.1q0.6 0 1.1-0.2 0.5-0.2 0.9-0.5 0.5-0.4 0.7-0.8 0.3-0.5 0.4-1.1 0.1-0.6 0-1.3-0.2-0.7-0.6-1.2-0.5-0.5-1.1-0.8-0.6-0.3-1.2-0.3-0.4-0.1-0.7-0.1c-5 0-9.7 2.5-12.5 6.7-2.8 4.2-3.3 9.5-1.4 14.1 2 4.7 6.1 8 11 9 4.9 1 10-0.6 13.5-4.1l16.9-16.8c2-2.1 5-3 7.9-2.4 2.8 0.5 5.2 2.5 6.4 5.2 1.1 2.7 0.8 5.8-0.9 8.2-1.6 2.5-4.3 3.9-7.2 3.9q-0.2 0-0.4 0-0.2 0-0.4 0-0.2 0-0.4-0.1-0.2 0-0.4 0-0.1 0-0.2 0 0 0-0.1-0.1-0.1 0-0.1 0-0.1 0-0.2 0-0.4 0-0.8 0.2-0.5 0.1-0.8 0.3-0.4 0.3-0.7 0.6-0.3 0.3-0.5 0.7v0.1q-0.3 0.6-0.3 1.3 0 0.8 0.3 1.4 0.4 0.7 1 1.1 0.5 0.4 1.3 0.6 0.3 0 0.6 0.1 0.4 0 0.7 0 0.3 0.1 0.7 0.1 0.3 0 0.7 0c2.9 0 5.8-0.9 8.3-2.5 2.5-1.7 4.4-4 5.5-6.8 1.2-2.7 1.5-5.7 0.9-8.7-0.6-2.9-2-5.6-4.1-7.7z"/><path class="c" d="m53.2 13.9q-0.8-1.4-1.9-2.7-1-1.2-2.2-2.4-1.2-1.1-2.5-2-1.4-0.9-2.9-1.6-1.1-0.6-2.2-1-1.1-0.4-2.3-0.7-1.2-0.2-2.4-0.4-1.2-0.1-2.5-0.1-0.4 0-0.8 0-0.4 0-0.7 0.1-0.4 0-0.7 0-0.4 0.1-0.7 0.1-0.4 0-0.7 0.1c-2.8 0.5-5.5 1.5-7.9 3-2.5 1.5-4.6 3.5-6.2 5.8-1.7 2.4-2.9 5-3.5 7.8-0.6 2.8-0.7 5.6-0.3 8.5q0.1 0.5 0.4 1 0.3 0.5 0.7 0.8 0.4 0.4 1 0.6 0.5 0.2 1 0.2h0.1 0.1q0 0 0.1 0 0 0 0.1 0 0 0 0.1 0 0 0 0.1 0 0.6-0.1 1.2-0.5 0.5-0.3 0.9-0.8 0.3-0.5 0.5-1.2 0.1-0.6 0-1.2c-0.3-2-0.3-4 0.2-6 0.4-2 1.3-3.8 2.4-5.5 1.2-1.6 2.7-3 4.4-4.1 1.7-1.1 3.6-1.8 5.6-2.1q0.3-0.1 0.5-0.1 0.3 0 0.5-0.1 0.3 0 0.5 0 0.3 0 0.5 0 0.3 0 0.6 0 2 0 4 0.5 2 0.5 3.7 1.5 1.8 1.1 3.2 2.5 1.4 1.4 2.4 3.2 0.3 0.4 0.6 0.7 0.2 0.3 0.6 0.5 0.4 0.2 0.8 0.3 0.4 0.1 0.8 0.1 0.1 0 0.1 0 0.9 0 1.6-0.5 0.7-0.4 1.1-1.1 0.4-0.8 0.4-1.6 0-0.8-0.4-1.5z"/><path class="a" d="m85.8 41.3h2.3v-1.7h-2.3zm2.6 7.3h2.1v-9h-2.1zm2.4-7.3h2.4v-1.6h-2.4z"/><path fill-rule="evenodd" class="a" d="m99.1 48.4l2.2-6.7h-2.1l-1 3.7zm-4.3-6.7l2.2 6.3q0 0 0 0 0 0.1 0 0.1 0 0.1 0 0.1 0 0.1 0 0.1 0 0.1 0 0.2 0 0.1 0 0.2-0.1 0.1-0.1 0.2-0.1 0.1-0.2 0.1 0 0.1-0.1 0.1-0.1 0-0.2 0-0.1 0.1-0.2 0.1-0.1 0-0.2 0h-0.6v1.5h0.8c1.9 0 2.2-0.2 2.8-1.7l-2.1-7.3z"/><path fill-rule="evenodd" class="a" d="m105.5 43.8q0.2-0.1 0.3-0.2 0.2-0.1 0.3-0.2 0.2-0.1 0.4-0.1 0.2 0 0.3 0 0.1 0 0.1 0 0.1 0 0.1 0 0.1 0 0.2 0.1 0 0 0.1 0v-1.8q-0.1 0-0.1 0-0.1 0-0.1 0-0.1 0-0.1 0-0.1 0-0.1 0-0.2-0.1-0.4 0-0.2 0-0.4 0.1-0.1 0-0.3 0.1-0.1 0.2-0.3 0.3zm-2.3 4.8h2v-6.9h-2z"/><path fill-rule="evenodd" class="a" d="m112.6 48.8q0.7 0 1.4-0.3 0.6-0.3 1.1-0.9 0.5-0.5 0.7-1.2 0.3-0.6 0.2-1.3 0.1-0.7-0.2-1.4-0.2-0.7-0.7-1.2-0.5-0.5-1.1-0.7-0.7-0.3-1.4-0.3v1.6c0.9 0.1 1.4 0.7 1.4 2 0 1.7-0.9 2-1.4 2.1zm-0.3-1.6c-0.4-0.1-1.4-0.3-1.4-2.1 0-0.4 0-1.9 1.4-2.1v-1.5q-0.7 0-1.4 0.3-0.6 0.2-1.1 0.8-0.5 0.5-0.7 1.1-0.3 0.7-0.2 1.4-0.1 0.7 0.2 1.4 0.2 0.7 0.7 1.2 0.5 0.5 1.1 0.8 0.7 0.3 1.4 0.3z"/><path fill-rule="evenodd" class="a" d="m120.2 42.2q0.1-0.2 0.3-0.3 0.2-0.1 0.4-0.2 0.2 0 0.4-0.1 0.2 0 0.4 0 0.2 0 0.4 0 0.2 0 0.4 0.1 0.2 0.1 0.4 0.1 0.1 0.1 0.3 0.2 0.2 0.2 0.4 0.5 0.2 0.3 0.3 0.6 0.2 0.3 0.2 0.6 0 0.3 0 0.6v4.3h-2v-4.2q0-0.2 0-0.4-0.1-0.2-0.2-0.4-0.2-0.2-0.4-0.3-0.2 0-0.4 0-0.1 0-0.3 0-0.1 0-0.2 0.1-0.2 0-0.3 0.1-0.1 0.1-0.1 0.2zm-2.4-0.4h2v6.8h-2z"/><path fill-rule="evenodd" class="a" d="m132.7 46.6q-0.1 0.1-0.1 0.3-0.1 0.1-0.2 0.2 0 0.2-0.1 0.3-0.1 0.1-0.2 0.2-0.3 0.3-0.6 0.5-0.3 0.3-0.6 0.4-0.4 0.1-0.8 0.2-0.3 0.1-0.7 0.1-0.7 0-1.4-0.3-0.7-0.2-1.2-0.7-0.5-0.6-0.7-1.2-0.3-0.7-0.2-1.4-0.1-0.8 0.2-1.4 0.2-0.7 0.7-1.3 0.5-0.5 1.2-0.8 0.7-0.2 1.4-0.2 0.4 0 0.7 0 0.4 0.1 0.7 0.3 0.4 0.1 0.7 0.4 0.2 0.2 0.5 0.5 0.2 0.3 0.3 0.7 0.2 0.4 0.3 0.7 0.1 0.4 0.1 0.8 0.1 0.4 0.1 0.8h-4.5q-0.1-0.1-0.1-0.2 0-0.1 0-0.1 0-0.1 0-0.2 0-0.1 0-0.2 0-0.1 0-0.2 0-0.1 0-0.2 0-0.1 0-0.2 0-0.1 0.1-0.2h2.4q0-0.1 0-0.2-0.1-0.1-0.1-0.1 0-0.1-0.1-0.2 0-0.1-0.1-0.2-0.1-0.1-0.2-0.2-0.1-0.1-0.2-0.2-0.2 0-0.3 0-0.2-0.1-0.3-0.1c-0.7 0-1.6 0.5-1.6 2 0 1 0.4 2.2 1.6 2.2q0.2 0 0.4 0 0.2-0.1 0.4-0.2 0.2-0.1 0.3-0.2 0.1-0.2 0.2-0.4z"/><path fill-rule="evenodd" class="a" d="m76.7 43.4q0.2-0.3 0.5-0.5 0.3-0.2 0.6-0.3 0.4-0.1 0.7-0.2 0.4 0 0.7 0 0.1 0 0.2 0 0.2 0 0.3 0 0.1 0 0.2 0.1 0.1 0 0.3 0 0.1 0.1 0.2 0.1 0.1 0.1 0.1 0.2 0.1 0 0.2 0.1 0.1 0.1 0.2 0.1 0 0.1 0.1 0.2 0.1 0.1 0.1 0.2 0.1 0.1 0.1 0.2 0.1 0.1 0.1 0.2 0 0.1 0.1 0.3 0 0.1 0 0.2 0 0.1 0 0.2 0.1 0.2 0.1 0.3v4.1h-0.6q0 0-0.1 0 0-0.1 0-0.1-0.1 0-0.1 0 0 0-0.1 0 0 0 0-0.1 0 0-0.1 0 0 0 0-0.1 0 0 0 0l-0.1-0.6q-0.1 0.1-0.2 0.1 0 0.1-0.1 0.1 0 0.1-0.1 0.1-0.1 0.1-0.1 0.1-0.1 0.1-0.1 0.1-0.1 0-0.2 0.1 0 0-0.1 0-0.1 0.1-0.1 0.1-0.1 0-0.2 0.1 0 0-0.1 0-0.1 0-0.1 0.1-0.1 0-0.2 0-0.1 0-0.1 0-0.1 0-0.2 0-0.1 0-0.2 0.1-0.1 0-0.1 0-0.1 0-0.2 0-0.1-0.1-0.2-0.1-0.1 0-0.2 0 0 0-0.1 0-0.1-0.1-0.2-0.1-0.1 0-0.1-0.1-0.1 0-0.2-0.1 0 0-0.1-0.1-0.1 0-0.1-0.1-0.1 0-0.1-0.1-0.1-0.1-0.1-0.1-0.1-0.1-0.1-0.2 0-0.1-0.1-0.2 0-0.1 0-0.2 0-0.1 0-0.1 0-0.1 0-0.2 0-0.1 0-0.2 0-0.1 0-0.2 0-0.1 0.1-0.2 0-0.1 0.1-0.2 0-0.1 0.1-0.1 0.1-0.1 0.2-0.2 0-0.1 0.1-0.2 0.1 0 0.2-0.1 0.2-0.1 0.3-0.1 0.2-0.1 0.3-0.2 0.2 0 0.3-0.1 0.2 0 0.3 0 0.3-0.1 0.5-0.1 0.2-0.1 0.4-0.1 0.3 0 0.5 0 0.2 0 0.5 0v-0.5q0-0.1 0-0.3-0.1-0.1-0.1-0.3 0-0.1-0.1-0.2-0.1-0.2-0.1-0.3-0.1-0.1-0.2-0.1-0.1-0.1-0.3-0.2-0.1 0-0.2 0-0.1 0-0.2 0-0.1 0-0.2 0-0.1 0-0.2 0-0.1 0-0.2 0 0 0-0.1 0.1-0.1 0-0.1 0-0.1 0-0.2 0.1 0 0-0.1 0 0 0.1-0.1 0.1-0.2 0.1-0.3 0.2-0.1 0-0.1 0.1 0 0-0.1 0 0 0-0.1 0 0 0 0 0-0.1 0-0.1 0 0 0 0 0-0.1 0-0.1 0 0 0-0.1-0.1 0 0 0 0 0 0 0 0-0.1 0-0.1-0.1 0 0 0 0zm3.6 2.6q-0.2 0-0.3 0-0.2 0.1-0.4 0.1-0.1 0-0.3 0-0.1 0-0.3 0-0.1 0.1-0.2 0.1-0.1 0-0.2 0-0.1 0.1-0.2 0.1-0.1 0-0.2 0.1-0.1 0-0.2 0.1 0 0-0.1 0 0 0.1-0.1 0.1-0.1 0.1-0.1 0.1 0 0.1-0.1 0.1 0 0.1 0 0.2 0 0 0 0.1 0 0 0 0.1 0 0 0 0.1 0 0.1 0 0.1 0 0.1 0 0.1 0 0.1 0 0.1 0.1 0 0.1 0.1 0 0 0 0.1 0.1 0 0.1 0 0 0.1 0 0.1 0.1 0 0.1 0 0.1 0.1 0.1 0.1 0 0 0.1 0 0 0 0.1 0 0 0.1 0.1 0.1 0 0 0.1 0 0 0 0.1 0 0 0 0.1 0 0 0 0.1 0 0.1 0 0.1 0 0.1 0 0.1 0 0.1 0 0.2-0.1 0 0 0.1 0 0 0 0.1 0 0.1 0 0.1-0.1 0.1 0 0.1 0 0.1 0 0.1-0.1 0.1 0 0.1 0 0.1-0.1 0.1-0.1 0.1 0 0.1-0.1 0.1 0 0.1-0.1 0.1 0 0.1 0 0-0.1 0.1-0.1 0-0.1 0.1-0.1z"/><path fill-rule="evenodd" class="a" d="m138.5 43.4q0.1 0 0.1-0.1 0.1 0 0.1-0.1 0.1 0 0.2-0.1 0 0 0.1-0.1 0 0 0.1-0.1 0 0 0.1-0.1 0.1 0 0.1-0.1 0.1 0 0.2 0 0-0.1 0.1-0.1 0.1 0 0.1-0.1 0.1 0 0.2 0 0 0 0.1-0.1 0.1 0 0.2 0 0.1 0 0.1 0 0.1 0 0.2 0 0.1 0 0.2 0 0.1 0 0.2 0 0.1 0 0.3 0 0.1 0 0.2 0.1 0.1 0 0.2 0.1 0.1 0 0.3 0.1 0.1 0.1 0.2 0.1 0 0.1 0.1 0.2 0.1 0.1 0.2 0.2 0.1 0.1 0.1 0.2 0.1 0.2 0.2 0.3 0 0.1 0.1 0.3 0 0.1 0.1 0.2 0 0.2 0.1 0.4 0 0.1 0 0.3 0 0.2 0 0.4 0.1 0.2 0.1 0.3 0 0.2-0.1 0.4 0 0.1 0 0.3 0 0.2-0.1 0.3 0 0.2 0 0.3-0.1 0.2-0.1 0.3-0.1 0.2-0.2 0.3 0 0.1-0.1 0.2-0.1 0.2-0.2 0.3-0.2 0.2-0.4 0.4-0.2 0.2-0.5 0.3-0.2 0.1-0.5 0.2-0.3 0-0.6 0-0.1 0-0.2 0-0.2 0-0.3 0-0.1 0-0.2-0.1-0.2 0-0.3 0-0.1-0.1-0.2-0.2-0.1 0-0.2-0.1-0.1 0-0.1-0.1-0.1-0.1-0.2-0.2v2.8h-1.2v-8.5h0.7q0.1 0 0.1 0 0.1 0 0.1 0.1 0.1 0 0.1 0 0 0.1 0 0.1zm0.1 3.9q0.1 0.1 0.1 0.1 0.1 0.1 0.2 0.2 0.1 0.1 0.2 0.1 0 0.1 0.1 0.1 0.1 0.1 0.2 0.1 0.1 0 0.2 0.1 0.1 0 0.2 0 0.1 0 0.2 0 0.2 0 0.4 0 0.2-0.1 0.3-0.2 0.2 0 0.4-0.1 0.1-0.2 0.2-0.3 0.1-0.2 0.2-0.4 0.1-0.2 0.2-0.5 0.1-0.2 0.1-0.4 0-0.2 0-0.5 0-0.1 0-0.2 0-0.2 0-0.3-0.1-0.1-0.1-0.3 0-0.1 0-0.2 0-0.1-0.1-0.2 0-0.1 0-0.2-0.1-0.1-0.1-0.1-0.1-0.1-0.1-0.2-0.1-0.1-0.1-0.1-0.1-0.1-0.1-0.1-0.1-0.1-0.2-0.1 0-0.1-0.1-0.1-0.1 0-0.2-0.1 0 0-0.1 0-0.1 0-0.2 0-0.1 0-0.2 0-0.1 0-0.2 0-0.1 0-0.2 0-0.2 0-0.3 0.1-0.1 0-0.2 0.1-0.1 0.1-0.2 0.1-0.1 0.1-0.2 0.2-0.1 0.1-0.1 0.2-0.1 0.1-0.2 0.2z"/><path class="a" d="m146.1 43.7q0.1-0.1 0.2-0.3 0-0.1 0.1-0.2 0.1-0.1 0.2-0.3 0.1-0.1 0.3-0.2 0.1-0.1 0.3-0.2 0.1-0.1 0.3-0.1 0.2 0 0.4 0 0.2 0 0.4 0 0 0 0.1 0 0 0.1 0.1 0.1 0 0 0 0 0.1 0 0.1 0.1l-0.1 0.9q0 0 0 0 0 0.1 0 0.1-0.1 0-0.1 0 0 0-0.1 0 0 0 0 0-0.1 0-0.1 0 0 0-0.1 0 0 0 0 0-0.1 0-0.1 0-0.1 0-0.1 0-0.1 0-0.1 0-0.1 0-0.1 0-0.1 0-0.2 0 0 0-0.1 0 0 0-0.1 0-0.1 0-0.1 0.1-0.1 0-0.1 0-0.1 0-0.2 0.1 0 0 0 0-0.1 0.1-0.1 0.1-0.1 0.1-0.1 0.1-0.1 0.1-0.1 0.1-0.1 0.1-0.1 0.1 0 0.1-0.1 0.1 0 0.1 0 0.2-0.1 0-0.1 0.1 0 0.1-0.1 0.1 0 0.1 0 0.2v3.9h-1.2v-6.3h0.7q0 0 0 0 0.1 0 0.1 0 0 0 0.1 0 0 0 0 0.1 0.1 0 0.1 0 0 0 0 0.1 0 0 0 0 0 0.1 0 0.1z"/><path fill-rule="evenodd" class="a" d="m152.6 42.4q0.1 0 0.3 0 0.2 0 0.3 0 0.2 0.1 0.3 0.1 0.2 0.1 0.3 0.1 0.2 0.1 0.3 0.1 0.1 0.1 0.3 0.2 0.1 0.1 0.2 0.2 0.1 0.1 0.2 0.2 0.1 0.1 0.2 0.2 0.1 0.1 0.2 0.3 0 0.1 0.1 0.2 0.1 0.2 0.1 0.3 0.1 0.3 0.2 0.7 0 0.3 0 0.7 0 0.3 0 0.7-0.1 0.3-0.2 0.6 0 0.2-0.1 0.3-0.1 0.1-0.1 0.3-0.1 0.1-0.2 0.2-0.1 0.1-0.2 0.3-0.1 0.1-0.2 0.2-0.1 0.1-0.2 0.1-0.2 0.1-0.3 0.2-0.1 0.1-0.3 0.1-0.3 0.1-0.6 0.2-0.3 0-0.6 0-0.4 0-0.7 0-0.3-0.1-0.6-0.2-0.1 0-0.3-0.1-0.1-0.1-0.2-0.2-0.1 0-0.3-0.1-0.1-0.1-0.2-0.2-0.1-0.2-0.2-0.3-0.1-0.1-0.1-0.2-0.1-0.2-0.2-0.3 0-0.1-0.1-0.3-0.1-0.3-0.2-0.6 0-0.4 0-0.7 0-0.4 0-0.7 0.1-0.4 0.2-0.7 0.1-0.1 0.1-0.3 0.1-0.1 0.2-0.2 0-0.2 0.1-0.3 0.1-0.1 0.2-0.2 0.1-0.1 0.2-0.2 0.2-0.1 0.3-0.2 0.1-0.1 0.2-0.2 0.2 0 0.3-0.1 0.1 0 0.3-0.1 0.2 0 0.3-0.1 0.2 0 0.3 0 0.2 0 0.4 0zm0 5.6q0.2 0 0.4 0 0.1-0.1 0.3-0.1 0.2-0.1 0.3-0.2 0.2-0.2 0.3-0.3 0.2-0.4 0.3-0.8 0.2-0.5 0.2-0.9 0-0.5-0.2-0.9-0.1-0.4-0.3-0.8-0.1-0.2-0.3-0.3-0.1-0.1-0.3-0.2-0.2-0.1-0.3-0.1-0.2-0.1-0.4 0-0.2-0.1-0.4 0-0.2 0-0.4 0.1-0.2 0.1-0.3 0.2-0.2 0.1-0.3 0.3-0.2 0.4-0.3 0.8-0.1 0.4-0.1 0.9 0 0.4 0.1 0.9 0.1 0.4 0.3 0.8 0.1 0.1 0.3 0.3 0.1 0.1 0.3 0.2 0.2 0 0.4 0.1 0.2 0 0.4 0z"/><path fill-rule="evenodd" class="a" d="m162.9 39.6v9.2h-0.8q0 0-0.1 0 0 0-0.1 0 0 0-0.1-0.1 0 0 0-0.1l-0.1-0.7q-0.1 0.1-0.2 0.2-0.1 0.1-0.2 0.2-0.2 0.1-0.3 0.2-0.1 0.1-0.2 0.1-0.2 0.1-0.3 0.2-0.2 0-0.3 0.1-0.2 0-0.3 0-0.2 0-0.3 0-0.2 0-0.3 0-0.1 0-0.2 0-0.2 0-0.3-0.1-0.1 0-0.2-0.1-0.1 0-0.2-0.1-0.1-0.1-0.2-0.1-0.1-0.1-0.2-0.2-0.1-0.1-0.2-0.2-0.1-0.1-0.1-0.2-0.1-0.2-0.2-0.3 0-0.1-0.1-0.2 0-0.2-0.1-0.3 0-0.2 0-0.4-0.1-0.1-0.1-0.3 0-0.2 0-0.4 0-0.1 0-0.3 0-0.2 0-0.4 0-0.1 0-0.3 0-0.1 0.1-0.3 0-0.2 0.1-0.3 0-0.2 0.1-0.3 0-0.2 0.1-0.3 0.1-0.1 0.1-0.2 0.1-0.2 0.2-0.3 0.1-0.1 0.2-0.2 0.1-0.1 0.2-0.2 0.1-0.1 0.2-0.1 0.2-0.1 0.3-0.2 0.1-0.1 0.2-0.1 0.2 0 0.3-0.1 0.2 0 0.3 0 0.2 0 0.3 0 0.3 0 0.5 0 0.2 0 0.5 0.1 0.2 0.1 0.4 0.3 0.2 0.1 0.3 0.3v-3.5zm-1.2 4.4q-0.1-0.1-0.1-0.1-0.1-0.1-0.2-0.2-0.1-0.1-0.2-0.1-0.1-0.1-0.2-0.1 0-0.1-0.1-0.1-0.1 0-0.2 0-0.1-0.1-0.2-0.1-0.1 0-0.2 0-0.2 0-0.4 0-0.2 0.1-0.4 0.2-0.1 0-0.3 0.2-0.1 0.1-0.2 0.2-0.2 0.2-0.3 0.4 0 0.2-0.1 0.5-0.1 0.2-0.1 0.4 0 0.2 0 0.5 0 0.1 0 0.2 0 0.2 0 0.3 0 0.1 0.1 0.3 0 0.1 0 0.2 0 0.1 0.1 0.2 0 0.1 0 0.2 0.1 0.1 0.1 0.2 0.1 0 0.1 0.1 0.1 0.1 0.1 0.1 0.1 0.1 0.1 0.1 0.1 0.1 0.2 0.1 0 0.1 0.1 0.1 0.1 0 0.1 0.1 0.1 0 0.2 0 0.1 0 0.2 0 0.1 0 0.1 0 0.2 0 0.3 0 0.1 0 0.2 0 0.1 0 0.2-0.1 0.2 0 0.3-0.1 0.1-0.1 0.2-0.1 0.1-0.1 0.2-0.2 0-0.1 0.1-0.2 0.1-0.1 0.2-0.2z"/><path class="a" d="m170.4 42.5v6.3h-0.7q-0.1 0.1-0.1 0-0.1 0-0.1 0-0.1 0-0.1-0.1-0.1 0-0.1-0.1l-0.1-0.6q0 0-0.1 0.1 0 0-0.1 0.1 0 0-0.1 0.1 0 0-0.1 0.1 0 0-0.1 0.1-0.1 0-0.1 0-0.1 0.1-0.1 0.1-0.1 0-0.2 0.1 0 0-0.1 0-0.1 0.1-0.1 0.1-0.1 0-0.2 0 0 0.1-0.1 0.1-0.1 0-0.2 0 0 0-0.1 0-0.1 0-0.2 0-0.1 0.1-0.1 0.1-0.1 0-0.3-0.1-0.1 0-0.2 0-0.1 0-0.2 0-0.1-0.1-0.3-0.1 0-0.1-0.1-0.1-0.1-0.1-0.2-0.1-0.1-0.1-0.2-0.2-0.1 0-0.1-0.1-0.1-0.1-0.2-0.2 0-0.1-0.1-0.2 0-0.1-0.1-0.2 0-0.1 0-0.2-0.1-0.1-0.1-0.2 0-0.1 0-0.3 0-0.1-0.1-0.2 0-0.1 0-0.3v-4h1.3v4q0 0.2 0 0.3 0 0.2 0 0.3 0.1 0.1 0.1 0.3 0.1 0.1 0.2 0.2 0.1 0.1 0.2 0.2 0.1 0.1 0.2 0.1 0.1 0.1 0.3 0.1 0.1 0 0.2 0 0.1 0 0.3 0 0.1 0 0.2-0.1 0.1 0 0.2 0 0.1-0.1 0.2-0.1 0.1-0.1 0.2-0.2 0.1 0 0.2-0.1 0.1-0.1 0.2-0.2 0.1-0.1 0.2-0.2v-4.6z"/><path class="a" d="m177.1 43.7q0 0 0 0 0 0-0.1 0 0 0 0 0.1 0 0 0 0 0 0 0 0-0.1 0-0.1 0 0 0 0 0 0 0-0.1 0 0 0 0 0 0 0-0.1 0 0 0 0 0 0 0-0.1-0.1 0 0 0 0-0.1 0-0.1 0 0-0.1-0.1-0.1 0 0 0 0-0.1 0-0.1-0.1-0.1 0-0.1 0-0.1 0-0.1-0.1-0.1 0-0.1 0-0.2 0-0.4-0.1-0.2 0-0.3 0-0.2 0-0.4 0.1-0.2 0-0.3 0.1-0.1 0-0.2 0.1-0.1 0-0.1 0.1-0.1 0.1-0.2 0.1 0 0.1-0.1 0.2-0.1 0-0.1 0.1-0.1 0.1-0.1 0.2 0 0.1-0.1 0.2 0 0.1 0 0.2-0.1 0.1-0.1 0.2 0 0.2 0 0.3 0 0.1-0.1 0.2 0 0.1 0 0.3 0 0.1 0 0.2 0.1 0.1 0.1 0.3 0 0.1 0 0.2 0 0.1 0.1 0.3 0 0.1 0 0.1 0.1 0.1 0.1 0.2 0.1 0.1 0.1 0.2 0.1 0.1 0.1 0.2 0.1 0.1 0.1 0.1 0.1 0.1 0.2 0.1 0 0.1 0.1 0.2 0.1 0 0.2 0 0.1 0.1 0.2 0.1 0.1 0 0.1 0.1 0.1 0 0.2 0 0.1 0 0.2 0 0.1 0 0.2 0 0.1 0 0.2 0 0 0 0.1-0.1 0.1 0 0.2 0 0 0 0.1-0.1 0 0 0.1 0 0 0 0.1-0.1 0.1 0 0.1 0 0 0 0.1-0.1 0 0 0 0 0.1 0 0.1-0.1 0 0 0.1 0 0 0 0-0.1 0.1 0 0.1 0 0 0 0.1 0 0 0 0 0 0 0 0.1 0 0 0 0 0 0.1 0 0.1 0 0 0.1 0 0.1l0.4 0.4q-0.1 0.1-0.1 0.2-0.1 0-0.1 0.1-0.1 0-0.2 0.1 0 0-0.1 0.1-0.1 0-0.1 0.1-0.1 0-0.2 0.1 0 0-0.1 0-0.1 0.1-0.2 0.1-0.1 0-0.1 0.1-0.1 0-0.2 0-0.1 0-0.2 0 0 0.1-0.1 0.1-0.1 0-0.2 0-0.1 0-0.2 0 0 0-0.1 0-0.1 0-0.2 0-0.1 0-0.3 0-0.1 0-0.3 0-0.1 0-0.2-0.1-0.2 0-0.3-0.1-0.1 0-0.3-0.1-0.1-0.1-0.2-0.2-0.1 0-0.2-0.1-0.1-0.1-0.2-0.2-0.1-0.1-0.2-0.3-0.1-0.1-0.2-0.2 0-0.1-0.1-0.3-0.1-0.1-0.1-0.3-0.1-0.1-0.1-0.3 0-0.2-0.1-0.3 0-0.2 0-0.4 0-0.2 0-0.3 0-0.2 0-0.4 0-0.1 0-0.3 0-0.2 0.1-0.3 0-0.2 0.1-0.4 0-0.1 0.1-0.2 0-0.2 0.1-0.3 0.1-0.1 0.2-0.3 0.1-0.1 0.2-0.2 0.1-0.1 0.2-0.2 0.1-0.1 0.2-0.2 0.1-0.1 0.2-0.1 0.2-0.1 0.3-0.2 0.2 0 0.3-0.1 0.2 0 0.3-0.1 0.2 0 0.4 0 0.1 0 0.3 0 0.1 0 0.3 0 0.2 0 0.3 0 0.2 0.1 0.3 0.1 0.2 0 0.3 0.1 0.1 0.1 0.2 0.1 0.2 0.1 0.3 0.2 0.1 0 0.2 0.1 0.1 0.1 0.2 0.2z"/><path class="a" d="m181.2 48.9q-0.2 0.1-0.4 0-0.1 0-0.3 0-0.1-0.1-0.3-0.2-0.1-0.1-0.2-0.2-0.1-0.1-0.2-0.3-0.1-0.1-0.1-0.3-0.1-0.1-0.1-0.3 0-0.1 0-0.3v-3.8h-0.8q0 0-0.1 0 0-0.1-0.1-0.1 0 0 0-0.1 0 0 0-0.1v-0.5l1-0.1 0.3-1.9q0-0.1 0-0.1 0 0 0 0 0 0 0.1-0.1 0 0 0 0 0 0 0 0 0 0 0.1 0 0 0 0-0.1 0 0 0.1 0h0.6v2.2h1.8v0.9h-1.8v3.7q0 0.1 0 0.1 0 0.1 0 0.2 0.1 0.1 0.1 0.1 0 0.1 0.1 0.2 0 0 0.1 0 0 0.1 0.1 0.1 0.1 0 0.1 0 0.1 0 0.1 0 0.1 0 0.1 0 0.1 0 0.1 0 0 0 0.1 0 0 0 0 0 0.1 0 0.1 0 0 0 0 0 0.1-0.1 0.1-0.1 0 0 0 0 0.1-0.1 0.2-0.1 0 0 0 0 0 0 0.1 0 0 0 0 0 0 0 0 0 0 0 0 0 0.1 0 0.1 0 0 0 0 0 0 0 0 0 0 0 0 0 0 0 0.1 0 0 0 0 0 0 0.1 0 0.1l0.3 0.6q0 0-0.1 0.1-0.1 0.1-0.2 0.1-0.1 0.1-0.2 0.1-0.1 0.1-0.2 0.1-0.1 0-0.2 0.1-0.1 0-0.2 0-0.1 0-0.2 0-0.1 0-0.2 0z"/></svg>