<svg xmlns="http://www.w3.org/2000/svg" xmlns:xlink="http://www.w3.org/1999/xlink" width="182.742"
    height="50.983" viewBox="0 0 182.742 50.983">
    <defs>
        <style>
            .a{fill:#0a293a;}.b{fill:url(#a);}.c{fill:url(#b);}.d,.e{fill:#e30914;}.e{fill-rule:evenodd;}.f{fill:#474747;}.g{filter:url(#c);}</style>
        <linearGradient id="a" x1="0.5" y1="-1.221" x2="0.5" y2="0.612"
            gradientUnits="objectBoundingBox">
            <stop offset="0" stop-color="#00c6fb" />
            <stop offset="1" stop-color="#005bea" />
        </linearGradient>
        <linearGradient id="b" x1="0.5" y1="-0.68" x2="0.5" y2="1.287" xlink:href="#a" />
        <filter id="c" x="7.532" y="0" width="47.05" height="34.003" filterUnits="userSpaceOnUse">
            <feOffset dx="-2" input="SourceAlpha" />
            <feGaussianBlur stdDeviation="1" result="d" />
            <feFlood flood-opacity="0.18" />
            <feComposite operator="in" in2="d" />
            <feComposite in="SourceGraphic" />
        </filter>
    </defs>
    <g transform="translate(-3168 -1550.992)">
        <g transform="translate(3243.301 1556.95)">
            <path class="a"
                d="M3263.944,1562.672a1.7,1.7,0,0,1-.464.556,1.036,1.036,0,0,1-.61.173,1.567,1.567,0,0,1-.828-.282q-.446-.283-1.065-.628a8.851,8.851,0,0,0-1.448-.628,6.088,6.088,0,0,0-1.957-.282,5.858,5.858,0,0,0-1.783.245,3.768,3.768,0,0,0-1.284.683,2.729,2.729,0,0,0-.774,1.047,3.441,3.441,0,0,0-.255,1.339,2.333,2.333,0,0,0,.519,1.548,4.346,4.346,0,0,0,1.375,1.056,12.675,12.675,0,0,0,1.948.783q1.092.347,2.239.738a21.181,21.181,0,0,1,2.24.91,7.761,7.761,0,0,1,1.948,1.311,5.945,5.945,0,0,1,1.374,1.939,6.727,6.727,0,0,1,.519,2.785,9.078,9.078,0,0,1-.609,3.341,7.721,7.721,0,0,1-1.785,2.713,8.4,8.4,0,0,1-2.867,1.821,10.554,10.554,0,0,1-3.879.665,12.468,12.468,0,0,1-2.476-.246,13.021,13.021,0,0,1-2.339-.7,12.476,12.476,0,0,1-2.1-1.092,10.186,10.186,0,0,1-1.748-1.421l1.438-2.349a1.532,1.532,0,0,1,.473-.427,1.189,1.189,0,0,1,.619-.174,1.747,1.747,0,0,1,.984.374q.528.374,1.256.828a9.859,9.859,0,0,0,1.7.829,6.571,6.571,0,0,0,2.34.373,4.8,4.8,0,0,0,3.241-.992,3.565,3.565,0,0,0,1.147-2.85,2.65,2.65,0,0,0-.519-1.693,4.2,4.2,0,0,0-1.375-1.1,10.3,10.3,0,0,0-1.948-.756q-1.092-.309-2.221-.673a19.133,19.133,0,0,1-2.221-.874,7.183,7.183,0,0,1-1.948-1.329,6.06,6.06,0,0,1-1.375-2.049,7.8,7.8,0,0,1-.519-3.032,7.287,7.287,0,0,1,2.239-5.226,8.191,8.191,0,0,1,2.695-1.693,9.907,9.907,0,0,1,3.678-.638,12.279,12.279,0,0,1,4.3.729,9.694,9.694,0,0,1,3.35,2.039Z"
                transform="translate(-3247.83 -1557.154)" />
            <path class="a"
                d="M3275.857,1557.128v15.495h.838a1.787,1.787,0,0,0,.719-.119,1.464,1.464,0,0,0,.537-.482l4.643-5.736a2.146,2.146,0,0,1,.647-.582,1.849,1.849,0,0,1,.918-.2h4.115l-5.808,6.937a4.832,4.832,0,0,1-1.347,1.256,3.566,3.566,0,0,1,.682.637,8.59,8.59,0,0,1,.574.783l6.227,9.068h-4.061a2.187,2.187,0,0,1-.91-.174,1.405,1.405,0,0,1-.637-.627l-4.771-7.083a1.339,1.339,0,0,0-.527-.546,2.026,2.026,0,0,0-.82-.127h-1.02v8.557h-4.5v-27.057Z"
                transform="translate(-3249.165 -1557.128)" />
            <path class="a"
                d="M3310,1566.008l-10.179,23.814a1.734,1.734,0,0,1-.519.72,1.591,1.591,0,0,1-.974.245h-3.35l3.5-7.5-7.556-17.279h3.951a1.24,1.24,0,0,1,.828.255,1.63,1.63,0,0,1,.446.583l3.969,9.685a8.979,8.979,0,0,1,.337.984q.137.491.264,1,.164-.509.327-1.01c.11-.334.231-.664.365-.992l3.75-9.667a1.326,1.326,0,0,1,.482-.6,1.283,1.283,0,0,1,.756-.236Z"
                transform="translate(-3250.275 -1557.632)" />
            <path class="a" d="M3319.229,1557.128v27.057h-4.5v-27.057Z"
                transform="translate(-3251.626 -1557.128)" />
            <path class="a"
                d="M3341.51,1566.008v18.68h-2.75a1.059,1.059,0,0,1-1.128-.82l-.31-1.492a10.034,10.034,0,0,1-2.53,1.884,6.985,6.985,0,0,1-3.26.72,6.629,6.629,0,0,1-2.7-.519,5.432,5.432,0,0,1-1.976-1.466,6.411,6.411,0,0,1-1.21-2.249,9.528,9.528,0,0,1-.409-2.868v-11.871h4.5v11.871a3.986,3.986,0,0,0,.792,2.649,2.934,2.934,0,0,0,2.376.938,4.745,4.745,0,0,0,2.185-.519,7.616,7.616,0,0,0,1.93-1.429v-13.509Z"
                transform="translate(-3252.222 -1557.632)" />
            <path class="a"
                d="M3359.675,1569.631a1.192,1.192,0,0,1-.383.409.985.985,0,0,1-.509.119,1.6,1.6,0,0,1-.7-.182q-.374-.183-.865-.409a8,8,0,0,0-1.12-.41,5.4,5.4,0,0,0-1.485-.182,3.423,3.423,0,0,0-2.085.564,1.761,1.761,0,0,0-.755,1.475,1.4,1.4,0,0,0,.391,1.01,3.518,3.518,0,0,0,1.038.72,10.051,10.051,0,0,0,1.466.555q.819.246,1.667.538t1.666.664a5.861,5.861,0,0,1,1.466.947,4.413,4.413,0,0,1,1.038,1.375,4.369,4.369,0,0,1,.391,1.93,6.3,6.3,0,0,1-.483,2.484,5.36,5.36,0,0,1-1.429,1.967,6.728,6.728,0,0,1-2.339,1.292,10.143,10.143,0,0,1-3.214.465,10.275,10.275,0,0,1-1.885-.173,11.175,11.175,0,0,1-1.766-.483,9.811,9.811,0,0,1-1.567-.728,7.637,7.637,0,0,1-1.265-.91l1.038-1.712a1.481,1.481,0,0,1,.473-.474,1.332,1.332,0,0,1,.692-.163,1.458,1.458,0,0,1,.792.236q.374.238.865.51a7.615,7.615,0,0,0,1.156.509,5.067,5.067,0,0,0,1.684.237,4.383,4.383,0,0,0,1.375-.191,2.905,2.905,0,0,0,.947-.5,1.889,1.889,0,0,0,.545-.719,2.148,2.148,0,0,0,.173-.847,1.514,1.514,0,0,0-.391-1.074,3.445,3.445,0,0,0-1.038-.728,10.022,10.022,0,0,0-1.475-.556q-.828-.246-1.693-.537a15.6,15.6,0,0,1-1.693-.683,5.764,5.764,0,0,1-1.475-.992,4.5,4.5,0,0,1-1.038-1.474,5.148,5.148,0,0,1-.391-2.113,5.373,5.373,0,0,1,.456-2.185,5.119,5.119,0,0,1,1.337-1.811,6.638,6.638,0,0,1,2.2-1.238,9.177,9.177,0,0,1,3.05-.465,9.345,9.345,0,0,1,3.514.638,7.962,7.962,0,0,1,2.64,1.675Z"
                transform="translate(-3253.454 -1557.614)" />
        </g>
        <g transform="translate(3168 1553.992)">
            <path class="b"
                d="M3227.281,1577.1a15.019,15.019,0,0,0-21.243,0l-16.819,16.819a8.764,8.764,0,1,1-6.2-14.958c.125,0,.254,0,.379.009l.141,0a3.107,3.107,0,0,0,3.066-2.574l0-.026a3.119,3.119,0,0,0-2.943-3.658c-.217-.009-.435-.014-.65-.014a15.022,15.022,0,1,0,10.622,25.644l16.819-16.819a8.764,8.764,0,1,1,6.2,14.957,8.921,8.921,0,0,1-1.571-.14,3.079,3.079,0,0,0-.55-.05,3.141,3.141,0,0,0-2.821,1.8l-.012.026a3.115,3.115,0,0,0,2.262,4.389,15.211,15.211,0,0,0,2.694.24,15.022,15.022,0,0,0,10.621-25.644Z"
                transform="translate(-3168 -1555.053)" />
            <g class="g" transform="matrix(1, 0, 0, 1, 0, -3)">
                <path class="c"
                    d="M3221.915,1564.938a21.688,21.688,0,0,0-9.423-8.78,21.438,21.438,0,0,0-9.4-2.166c-.284,0-.573.006-.859.017a22.152,22.152,0,0,0-2.794.288,21.746,21.746,0,0,0-17.843,25.049,3.168,3.168,0,0,0,3.1,2.649h.027l.122,0a3.494,3.494,0,0,0,.4-.041,3.181,3.181,0,0,0,2.605-3.658,15.4,15.4,0,0,1,12.632-17.733,15.681,15.681,0,0,1,1.984-.2c.193-.008.388-.011.582-.011a15.412,15.412,0,0,1,13.35,7.749,3.184,3.184,0,0,0,2.756,1.6c.042,0,.082,0,.125,0a3.176,3.176,0,0,0,2.631-4.751Z"
                    transform="translate(-3168.75 -1550.99)" />
            </g>
        </g>
        <g transform="translate(3244.365 1590.601)">
            <g transform="translate(9.402)">
                <path class="d"
                    d="M3258.927,1594.468h2.351V1592.8h-2.351Zm2.668,7.307h2.034V1592.8H3261.6Zm2.365-7.307h2.364V1592.8h-2.364Z"
                    transform="translate(-3258.927 -1592.803)" />
                <path class="e"
                    d="M3271.942,1598.761l1-3.75h2.1l-2.262,6.71Zm-3.546-3.75,2.224,6.227a1.249,1.249,0,0,1,.063.356.967.967,0,0,1-.318.712,1.22,1.22,0,0,1-.7.14h-.623v1.563h.775c1.932-.038,2.173-.254,2.771-1.716l-2.046-7.282Z"
                    transform="translate(-3259.464 -1592.928)" />
                <path class="e"
                    d="M3279.751,1595.423a1.506,1.506,0,0,1,1.359-.559,2.5,2.5,0,0,1,.356.026v1.792a1.806,1.806,0,0,0-.419-.038,1.43,1.43,0,0,0-1.3.5Zm-2.338-.406h1.994v6.874h-1.994Z"
                    transform="translate(-3259.976 -1592.92)" />
                <path class="e"
                    d="M3287.174,1600.49c.432-.1,1.385-.343,1.385-2.122,0-1.233-.508-1.906-1.385-2.008v-1.575a3.387,3.387,0,0,1,3.393,3.583,3.549,3.549,0,0,1-3.394,3.736Zm-.33,1.614a3.432,3.432,0,0,1-3.432-3.66,3.47,3.47,0,0,1,3.432-3.66v1.575c-1.424.191-1.424,1.678-1.424,2.072,0,1.805,1.017,2,1.424,2.059Z"
                    transform="translate(-3260.316 -1592.915)" />
                <path class="e"
                    d="M3295.249,1595.477a2.411,2.411,0,0,1,1.575-.573,2.446,2.446,0,0,1,1.449.446,2.6,2.6,0,0,1,.928,2.312v4.232h-2v-4.143a1.027,1.027,0,0,0-1.016-1.183,1.14,1.14,0,0,0-.94.471Zm-2.313-.457h1.983v6.874h-1.983Z"
                    transform="translate(-3260.857 -1592.922)" />
                <path class="e"
                    d="M3308.26,1599.88a3.618,3.618,0,0,1-.6,1.054,3.471,3.471,0,0,1-2.706,1.143,3.36,3.36,0,0,1-3.52-3.608,3.457,3.457,0,0,1,3.546-3.673,3.062,3.062,0,0,1,2.553,1.206,5,5,0,0,1,.8,3.013h-4.5a3.847,3.847,0,0,1-.076-.711,3.158,3.158,0,0,1,.076-.775h2.439a1.742,1.742,0,0,0-.28-.712,1.3,1.3,0,0,0-1.041-.483c-.724,0-1.538.458-1.538,2.02,0,.979.356,2.136,1.589,2.136a1.3,1.3,0,0,0,1.27-.75Z"
                    transform="translate(-3261.339 -1592.916)" />
            </g>
            <path class="f"
                d="M3249.272,1596.737a3.488,3.488,0,0,1,2.522-1.007,2.449,2.449,0,0,1,.964.178,2,2,0,0,1,.708.5,2.135,2.135,0,0,1,.435.764,3.116,3.116,0,0,1,.147.983v4.056h-.544a.517.517,0,0,1-.275-.059.4.4,0,0,1-.15-.222l-.132-.557a5.286,5.286,0,0,1-.482.4,3.037,3.037,0,0,1-.5.294,2.472,2.472,0,0,1-.553.185,3.141,3.141,0,0,1-.651.063,2.338,2.338,0,0,1-.7-.1,1.588,1.588,0,0,1-.573-.316,1.486,1.486,0,0,1-.385-.532,1.833,1.833,0,0,1-.14-.745,1.418,1.418,0,0,1,.2-.723,1.837,1.837,0,0,1,.664-.623,4.258,4.258,0,0,1,1.2-.451,9.077,9.077,0,0,1,1.824-.2v-.463a1.618,1.618,0,0,0-.307-1.077,1.123,1.123,0,0,0-.9-.357,1.988,1.988,0,0,0-.673.1,2.553,2.553,0,0,0-.469.223c-.132.081-.246.156-.344.223a.542.542,0,0,1-.3.1.35.35,0,0,1-.216-.069.58.58,0,0,1-.147-.163Zm3.58,2.648a9.345,9.345,0,0,0-1.264.116,3.472,3.472,0,0,0-.845.24,1.164,1.164,0,0,0-.47.354.775.775,0,0,0-.143.455.971.971,0,0,0,.078.409.758.758,0,0,0,.212.282.854.854,0,0,0,.316.159,1.462,1.462,0,0,0,.394.05,2.259,2.259,0,0,0,.517-.056,2.06,2.06,0,0,0,.441-.16,2.229,2.229,0,0,0,.394-.253,3.556,3.556,0,0,0,.369-.344Z"
                transform="translate(-3248.959 -1592.969)" />
            <path class="f"
                d="M3314.8,1596.8a3.825,3.825,0,0,1,.429-.435,2.678,2.678,0,0,1,.491-.338,2.562,2.562,0,0,1,.56-.22,2.49,2.49,0,0,1,.635-.077,2.253,2.253,0,0,1,.987.212,2.071,2.071,0,0,1,.754.626,3.032,3.032,0,0,1,.485,1.021,5.108,5.108,0,0,1,.173,1.4,4.329,4.329,0,0,1-.191,1.311,3.219,3.219,0,0,1-.545,1.048,2.5,2.5,0,0,1-2.012.952,2.314,2.314,0,0,1-.977-.188,2.355,2.355,0,0,1-.726-.525v2.76h-1.219v-8.494h.732a.3.3,0,0,1,.319.243Zm.062,3.844a1.726,1.726,0,0,0,.648.551,1.869,1.869,0,0,0,.78.157,1.537,1.537,0,0,0,1.3-.6,2.873,2.873,0,0,0,.46-1.762,4.483,4.483,0,0,0-.1-1.037,1.977,1.977,0,0,0-.3-.7,1.193,1.193,0,0,0-.486-.4,1.593,1.593,0,0,0-.651-.128,1.744,1.744,0,0,0-.923.238,2.649,2.649,0,0,0-.723.676Z"
                transform="translate(-3252.629 -1592.969)" />
            <path class="f"
                d="M3322.835,1597.069a2.9,2.9,0,0,1,.74-.983,1.688,1.688,0,0,1,1.43-.31.989.989,0,0,1,.322.141l-.082.92a.2.2,0,0,1-.207.169,1.519,1.519,0,0,1-.262-.034,1.968,1.968,0,0,0-.375-.035,1.472,1.472,0,0,0-.52.085,1.223,1.223,0,0,0-.4.25,1.7,1.7,0,0,0-.316.407,4.13,4.13,0,0,0-.258.547v3.982h-1.219v-6.36h.7a.386.386,0,0,1,.272.072.47.47,0,0,1,.1.254Z"
                transform="translate(-3253.085 -1592.969)" />
            <path class="f"
                d="M3329.56,1595.749a3.351,3.351,0,0,1,1.268.229,2.642,2.642,0,0,1,.964.657,2.934,2.934,0,0,1,.61,1.034,4.426,4.426,0,0,1,0,2.714,2.876,2.876,0,0,1-.61,1.032,2.648,2.648,0,0,1-.964.655,3.65,3.65,0,0,1-2.541,0,2.676,2.676,0,0,1-.967-.655,2.872,2.872,0,0,1-.617-1.032,4.369,4.369,0,0,1,0-2.714,2.929,2.929,0,0,1,.617-1.034,2.67,2.67,0,0,1,.967-.657A3.366,3.366,0,0,1,3329.56,1595.749Zm0,5.6a1.559,1.559,0,0,0,1.346-.607,3.516,3.516,0,0,0,0-3.421,1.557,1.557,0,0,0-1.346-.61,1.577,1.577,0,0,0-1.361.61,3.488,3.488,0,0,0,0,3.421A1.579,1.579,0,0,0,3329.56,1601.345Z"
                transform="translate(-3253.358 -1592.97)" />
            <path class="f"
                d="M3340.307,1592.8v9.239h-.739a.3.3,0,0,1-.32-.244l-.106-.732a3.369,3.369,0,0,1-.923.774,2.394,2.394,0,0,1-1.192.29,2.23,2.23,0,0,1-.986-.213,2.065,2.065,0,0,1-.755-.622,2.988,2.988,0,0,1-.482-1.017,5.25,5.25,0,0,1-.169-1.4,4.42,4.42,0,0,1,.188-1.315,3.134,3.134,0,0,1,.545-1.052,2.558,2.558,0,0,1,.863-.7,2.531,2.531,0,0,1,1.146-.253,2.148,2.148,0,0,1,1.7.72V1592.8Zm-1.227,4.419a1.744,1.744,0,0,0-.648-.551,1.885,1.885,0,0,0-.779-.157,1.538,1.538,0,0,0-1.3.6,2.873,2.873,0,0,0-.46,1.762,4.485,4.485,0,0,0,.1,1.036,1.994,1.994,0,0,0,.3.7,1.189,1.189,0,0,0,.485.4,1.582,1.582,0,0,0,.652.128,1.727,1.727,0,0,0,.92-.238,2.789,2.789,0,0,0,.726-.67Z"
                transform="translate(-3253.82 -1592.803)" />
            <path class="f"
                d="M3348.321,1595.856v6.36h-.732a.313.313,0,0,1-.325-.244l-.088-.638a4.31,4.31,0,0,1-.432.4,2.685,2.685,0,0,1-.482.31,2.714,2.714,0,0,1-.545.2,2.543,2.543,0,0,1-.619.073,2.286,2.286,0,0,1-.924-.175,1.831,1.831,0,0,1-.667-.491,2.152,2.152,0,0,1-.407-.761,3.317,3.317,0,0,1-.137-.983v-4.05h1.226v4.05a1.621,1.621,0,0,0,.313,1.061,1.171,1.171,0,0,0,.958.379,1.8,1.8,0,0,0,.876-.223,2.968,2.968,0,0,0,.764-.61v-4.657Z"
                transform="translate(-3254.292 -1592.976)" />
            <path class="f"
                d="M3355.466,1597.039a.722.722,0,0,1-.11.109.254.254,0,0,1-.154.041.366.366,0,0,1-.209-.078,2.721,2.721,0,0,0-.275-.169,2.464,2.464,0,0,0-.4-.169,2.074,2.074,0,0,0-1.374.084,1.531,1.531,0,0,0-.573.463,2.137,2.137,0,0,0-.347.733,3.649,3.649,0,0,0-.119.97,3.57,3.57,0,0,0,.125.992,2.124,2.124,0,0,0,.356.733,1.523,1.523,0,0,0,.563.451,1.749,1.749,0,0,0,.739.153,1.86,1.86,0,0,0,.652-.1,2.078,2.078,0,0,0,.425-.209,3.2,3.2,0,0,0,.282-.209.349.349,0,0,1,.231-.1.271.271,0,0,1,.232.112l.35.451a2.343,2.343,0,0,1-.491.457,2.784,2.784,0,0,1-.578.307,3.226,3.226,0,0,1-.643.174,4.05,4.05,0,0,1-.679.057,2.813,2.813,0,0,1-1.111-.219,2.527,2.527,0,0,1-.9-.639,3.044,3.044,0,0,1-.6-1.03,4.081,4.081,0,0,1-.219-1.387,4.193,4.193,0,0,1,.2-1.308,2.934,2.934,0,0,1,.582-1.036,2.681,2.681,0,0,1,.949-.682,3.177,3.177,0,0,1,1.289-.248,3.068,3.068,0,0,1,1.2.22,2.932,2.932,0,0,1,.927.62Z"
                transform="translate(-3254.729 -1592.97)" />
            <path class="f"
                d="M3359.912,1602.194a1.571,1.571,0,0,1-1.186-.432,1.707,1.707,0,0,1-.417-1.234v-3.806h-.739a.237.237,0,0,1-.25-.262v-.5l1.033-.143.275-1.9a.292.292,0,0,1,.1-.166.278.278,0,0,1,.184-.059h.621v2.135h1.8v.889h-1.8v3.725a.766.766,0,0,0,.184.56.644.644,0,0,0,.473.185.86.86,0,0,0,.292-.044,1.143,1.143,0,0,0,.209-.1c.058-.035.108-.067.15-.1a.2.2,0,0,1,.113-.043.15.15,0,0,1,.1.028.367.367,0,0,1,.072.09l.363.589a2.1,2.1,0,0,1-.714.425A2.5,2.5,0,0,1,3359.912,1602.194Z"
                transform="translate(-3255.107 -1592.854)" />
        </g>
    </g>
</svg>