<svg version="1.2" xmlns="http://www.w3.org/2000/svg" viewBox="0 0 1920 1080" width="1920" height="1080"><defs><clipPath clipPathUnits="userSpaceOnUse" id="cp1"><path d="m1920 2.05v1090.52h-1920v-1090.52z"/></clipPath><linearGradient id="P" gradientUnits="userSpaceOnUse"/><linearGradient id="g1" x2="1" href="#P" gradientTransform="matrix(0,1758.632,-3730.097,0,969.51,-853.915)"><stop stop-color="#00c6fb"/><stop offset="1" stop-color="#005bea"/></linearGradient><linearGradient id="g2" x2="1" href="#P" gradientTransform="matrix(0,1758.969,-2580.151,0,1008.368,-854.059)"><stop stop-color="#00c6fb"/><stop offset="1" stop-color="#005bea"/></linearGradient></defs><style>.a{fill:url(#g1)}.b{fill:url(#g2)}</style><g clip-path="url(#cp1)"><g style="opacity:.7"><g style="opacity:.1"><path class="a" d="m1846.4 458.1c-44.6-44.6-97.5-79.9-155.7-104-58.3-24.1-120.7-36.6-183.7-36.6-63.1 0-125.5 12.5-183.7 36.6-58.3 24.1-111.2 59.4-155.7 104l-537.5 537.1c-26 25.9-56.9 46.5-90.9 60.5-34 14.1-70.4 21.3-107.1 21.3-36.8 0-73.2-7.2-107.2-21.3-34-14-64.8-34.6-90.9-60.5-109.1-109.2-109.1-286.7 0-395.9 13-12.9 27.2-24.6 42.4-34.8 15.3-10.2 31.5-18.9 48.5-25.9 16.9-7 34.5-12.3 52.5-15.9 18-3.5 36.3-5.3 54.7-5.2 4 0 8.1 0.1 12.1 0.3q2.3 0.1 4.5 0.1c11.6 0 23.1-2 34.1-6 10.9-4 21-9.8 29.9-17.3 8.9-7.4 16.4-16.4 22.2-26.4 5.8-10.1 9.8-21.1 11.8-32.5l0.2-0.9c2.4-14 1.9-28.3-1.7-42.1-3.5-13.7-9.9-26.6-18.8-37.6-8.9-11.1-20.1-20.1-32.8-26.5-12.7-6.4-26.6-10-40.8-10.6-6.9-0.3-13.9-0.5-20.7-0.5-160.4 0-310.1 80-399.2 213.2-89.1 133.3-105.7 302.1-44.4 450.1 61.4 148.1 192.6 255.7 349.9 287 157.2 31.2 319.7-18 433.1-131.3l537.4-537.1c26.1-26 56.9-46.6 90.9-60.6 34-14.1 70.4-21.3 107.2-21.3 36.7 0 73.1 7.2 107.1 21.3 34 14 64.9 34.6 90.9 60.6 109.2 109.1 109.2 286.6 0 395.8-13 13-27.2 24.6-42.4 34.8-15.2 10.2-31.5 18.9-48.4 25.9-17 7-34.6 12.3-52.6 15.9-18 3.5-36.3 5.3-54.6 5.2q-6.3 0-12.6-0.3-6.4-0.3-12.6-0.8-6.3-0.6-12.6-1.4-6.2-0.9-12.5-2-2.1-0.4-4.3-0.7-2.2-0.3-4.4-0.5-2.2-0.2-4.4-0.3-2.2-0.1-4.4-0.1c-9.4 0.1-18.8 1.5-27.8 4.1-9 2.7-17.7 6.6-25.6 11.6-7.9 5.1-15.1 11.2-21.3 18.3-6.3 7-11.5 14.9-15.5 23.4l-0.4 0.9c-6.5 13.8-9.7 28.9-9.4 44.1 0.3 15.2 4 30.2 11 43.7 7 13.6 17 25.3 29.3 34.4 12.2 9.1 26.4 15.2 41.4 17.9q10.7 1.9 21.4 3.4 10.7 1.4 21.5 2.4 10.7 0.9 21.6 1.4 10.8 0.5 21.6 0.5c94.9 0 187.7-28.2 266.7-80.9 78.9-52.7 140.4-127.6 176.8-215.3 36.3-87.6 45.8-184.1 27.3-277.1-18.6-93.1-64.3-178.6-131.4-245.6z"/><path class="b" d="m1650.8 103.6c-17.3-30.3-36.8-59.1-58.4-86.4-21.7-27.3-45.3-52.9-70.8-76.7-25.5-23.7-52.8-45.5-81.5-65.1-28.8-19.7-59-37.1-90.4-52.2-23.3-11.4-47.2-21.4-71.7-30-24.4-8.7-49.3-15.9-74.6-21.7-25.3-5.8-50.8-10.2-76.6-13.1-25.8-2.9-51.7-4.4-77.6-4.4-9.1 0-18.3 0.2-27.5 0.6q-11.2 0.4-22.4 1.2-11.2 0.8-22.4 1.9-11.1 1.2-22.3 2.7-11.1 1.5-22.2 3.4c-183 30.7-343.1 130.8-450.8 281.9-107.7 151.1-150.1 335-119.3 518 1.9 11.6 5.9 22.9 11.7 33.2 5.8 10.3 13.4 19.5 22.4 27.2 9 7.6 19.3 13.7 30.4 17.8 11.1 4.1 22.8 6.3 34.7 6.4h0.9q1.9 0 3.8-0.1 1.7-0.1 3.3-0.2 1.6-0.1 3.2-0.3 1.6-0.1 3.2-0.4 1.7-0.2 3.3-0.4c13.1-2.3 25.7-7.1 37-14.1 11.2-7.1 21-16.3 28.8-27.2 7.7-10.8 13.2-23 16.2-36 3-13 3.4-26.4 1.2-39.6-10.7-63.6-8.7-128.8 5.7-191.7 14.5-62.9 41.3-122.4 78.8-174.9 37.5-52.6 84.9-97.3 139.7-131.6 54.8-34.2 115.8-57.3 179.5-68q7.8-1.4 15.7-2.4 7.9-1.1 15.9-1.9 7.9-0.8 15.9-1.4 7.9-0.6 15.9-0.9c6.1-0.2 12.4-0.3 18.6-0.3 43.1 0 86 5.8 127.6 17 41.7 11.2 81.6 27.9 118.9 49.5 37.3 21.6 71.6 48 102 78.6 30.4 30.5 56.6 64.9 78.1 102.3 4.4 7.7 9.8 14.8 16.1 21.1 6.3 6.3 13.4 11.8 21.1 16.2 7.7 4.5 15.9 7.9 24.5 10.2 8.6 2.4 17.4 3.5 26.3 3.6q2 0 4-0.1c17.4-0.7 34.4-5.9 49.3-15 14.8-9.1 27.1-22 35.5-37.2 8.5-15.3 12.8-32.4 12.7-49.9-0.1-17.4-4.7-34.5-13.4-49.6z"/></g></g></g></svg>