<?xml version="1.0" encoding="utf-8"?>
<!-- Generator: Adobe Illustrator 27.8.0, SVG Export Plug-In . SVG Version: 6.00 Build 0)  -->
<svg version="1.1" baseProfile="tiny" xmlns="http://www.w3.org/2000/svg" xmlns:xlink="http://www.w3.org/1999/xlink" x="0px"
	 y="0px" viewBox="0 0 141.7 37.7" overflow="visible" xml:space="preserve">
<g id="Layer_2">
</g>
<g id="Layer_1">
	<g>
		<g>
			<path fill="#FFFFFF" d="M19.8,9.9c3,0,5.4,2.4,5.4,5.4v6.9c0,3-2.4,5.4-5.4,5.4H6.9c-3,0-5.4-2.4-5.4-5.4v-6.9
				c0-3,2.4-5.4,5.4-5.4H19.8z M3.6,22.2c0,1.8,1.5,3.3,3.3,3.3h12.9c1.8,0,3.3-1.5,3.3-3.3v-6.9c0-1.8-1.5-3.3-3.3-3.3H6.9
				c-1.8,0-3.3,1.5-3.3,3.3V22.2z"/>
			<path fill="#FFFFFF" d="M28.9,37.1c-0.6,0-1-0.4-1-1V15.3c0-3,2.4-5.4,5.4-5.4h10.4c3,0,5.4,2.4,5.4,5.4v6.9c0,3-2.4,5.4-5.4,5.4
				c-14.7,0-13.8,0-13.8,0s0,3.6,0,8.5C29.9,36.7,29.5,37.1,28.9,37.1z M47.1,15.3c0-1.8-1.5-3.3-3.4-3.3H33.3
				c-1.8,0-3.3,1.5-3.3,3.3c0,4.5,0,10.2,0,10.2s-1,0,13.8,0c1.9,0,3.4-1.5,3.4-3.3V15.3z"/>
			<path fill="#FFFFFF" d="M71.9,9.9c0.5,0,1,0.5,1,1c0,0.5-0.5,1-1,1H57.6c-1.9,0-3.6,1.3-3.6,2.9c0,1.6,1.7,2.9,3.6,2.9h10.1
				c3.1,0,5.6,2.2,5.6,4.9c0,2.7-2.5,5-5.6,5H53c-0.5,0-1-0.4-1-1c0-0.5,0.4-1,1-1h14.7c1.9,0,3.6-1.4,3.6-3c0-1.6-1.6-2.9-3.6-2.9
				H57.6c-3.1,0-5.6-2.2-5.6-4.9c0-2.7,2.5-4.9,5.6-4.9H71.9z"/>
			<path fill="#FFFFFF" d="M76.4,1.4c0-0.6,0.4-1,1-1c0.5,0,1,0.4,1,1v20.8c0,1.8,1.5,3.3,3.3,3.3h3.4c0.5,0,1,0.5,1,1
				c0,0.5-0.5,1-1,1h-3.4c-3,0-5.4-2.4-5.4-5.4V1.4z"/>
			<path fill="#FFFFFF" d="M104.6,9.9c2.9,0,5.3,2.3,5.3,5.3v7.1c0,2.9-2.3,5.3-5.2,5.3H94.1c-2.9,0-5.3-2.4-5.3-5.3
				c0-2.9,2.4-5.3,5.3-5.3h13.8v-1.9c0-1.8-1.5-3.3-3.3-3.3H90c-0.6,0-1-0.4-1-1c0-0.5,0.4-1,1-1H104.6z M94.1,25.6h10.6
				c1.8,0,3.3-1.5,3.3-3.3V19H94.1c-1.8,0-3.3,1.5-3.3,3.3C90.8,24.1,92.3,25.6,94.1,25.6z"/>
			<path fill="#FFFFFF" d="M115.4,37.2c-0.6,0-1-0.4-1-1c0-0.6,0.4-1,1-1h13.5c1.8,0,3.4-1.5,3.3-3.4v-4.3h-13.9
				c-3,0-5.4-2.4-5.4-5.4v-6.8c0-3,2.4-5.4,5.4-5.4h10.6c3,0,5.4,2.4,5.4,5.4v16.5c0,3-2.4,5.4-5.4,5.4H115.4z M132.2,25.5V15.3
				c0-1.9-1.5-3.4-3.3-3.4h-10.6c-1.8,0-3.3,1.5-3.3,3.4v6.8c0,1.9,1.5,3.4,3.3,3.4H132.2z"/>
		</g>
		<g>
			<path fill="#231F20" d="M133.9,7.2V3.4h-1.5V2.8h3.5v0.5h-1.5v3.9H133.9z"/>
			<path fill="#231F20" d="M140.2,7.2h-0.6V3.4L138.5,6h-0.4L137,3.4v3.8h-0.5V2.8h0.8l1.1,2.4l1.1-2.4h0.8V7.2z"/>
		</g>
		<g>
			<path fill="#231F20" stroke="#231F20" stroke-width="0.151" d="M99.2,31.5c0.1,0,0.2,0.1,0.2,0.2c0,0.1-0.1,0.2-0.2,0.2h-3.5
				c-0.4,0-0.7,0.3-0.7,0.7v1.4h3.8c0.1,0,0.2,0.1,0.2,0.2c0,0.1-0.1,0.2-0.2,0.2H95V37c0,0.1-0.1,0.2-0.2,0.2
				c-0.1,0-0.2-0.1-0.2-0.2v-4.3c0-0.6,0.5-1.1,1.1-1.1H99.2z"/>
			<path fill="#231F20" stroke="#231F20" stroke-width="0.151" d="M105.1,31.5c0.1,0,0.2,0.1,0.2,0.2c0,0.1-0.1,0.2-0.2,0.2h-3.6
				c-0.4,0-0.7,0.3-0.7,0.7v0.8c0,0.4,0.3,0.7,0.7,0.7h2.7c0.6,0,1.1,0.5,1.1,1.1v0.8c0,0.6-0.5,1.1-1.1,1.1h-3.6
				c-0.1,0-0.2-0.1-0.2-0.2c0-0.1,0.1-0.2,0.2-0.2h3.6c0.4,0,0.7-0.3,0.7-0.7v-0.8c0-0.4-0.3-0.7-0.7-0.7h-2.7
				c-0.6,0-1.1-0.5-1.1-1.1v-0.8c0-0.6,0.5-1.1,1.1-1.1H105.1z"/>
			<path fill="#231F20" stroke="#231F20" stroke-width="0.151" d="M109.8,31.5c0.6,0,1.1,0.5,1.1,1.1v1.1c0,0.6-0.5,1.1-1.1,1.1
				h-2.3c-0.4,0-0.7,0.3-0.7,0.7c0,0.9,0,1.3,0,1.3s0.4,0,4,0c0.1,0,0.2,0.1,0.2,0.2c0,0.1-0.1,0.2-0.2,0.2h-4.2
				c-0.1,0-0.2-0.1-0.2-0.2v-1.6c0-0.6,0.5-1.1,1.1-1.1h2.3c0.4,0,0.7-0.3,0.7-0.7v-1.1c0-0.4-0.3-0.7-0.7-0.7h-2.3
				c-0.4,0-0.7,0.3-0.7,0.7V33c0,0.1-0.1,0.2-0.2,0.2c-0.1,0-0.2-0.1-0.2-0.2v-0.4c0-0.6,0.5-1.1,1.1-1.1H109.8z"/>
		</g>
	</g>
</g>
</svg>
