<svg version="1.2" xmlns="http://www.w3.org/2000/svg" viewBox="0 0 1920 1080" width="1920" height="1080"><style>.a{fill:#407bff}.b{fill:#263238}.c{fill:#fff}.d{fill:#ebebeb}.e{fill:#e6e6e6}.f{fill:#f5f5f5}.g{fill:#fafafa}.h{fill:#e0e0e0}.i{fill:#f0f0f0}.j{opacity:.4;fill:#fff}.k{fill:#ff8b7b}.l{opacity:.2}.m{opacity:.4;fill:#407bff}.n{opacity:.3}.o{opacity:.3;fill:#fff}.p{fill:#ff5652}</style><path class="a" d="m1775.3 614.8c24.9 24.9 21.2 50.1 3.5 67.8-17.8 17.9-43 21.6-67.9-3.2-24.9-24.9-40-68.7-22.3-86.6 17.7-17.7 61.7-2.8 86.7 22z"/><path class="a" d="m1863.4 777.5c-30.7 5.5-49.3-9-55.8-29.9-6.4-21 1.7-40.2 32.4-45.6 30.9-5.5 72.6 5.1 79.2 25.8 6.4 21-24.9 44.3-55.8 49.7z"/><path class="a" d="m1700.8 826.2c22.4 7.4 37.6-1.3 44.7-16.2 7-14.6 3-29.8-19.1-37.1-22.3-7.3-54.3-4.1-61.3 10.6-7 14.8 13.6 35.4 35.7 42.7z"/><path class="a" d="m1880.7 613.4c-21.4 29.2-47.7 31.6-68.8 19-21.1-12.6-29-35.5-7.6-64.7 21.4-29.2 63.7-53.6 84.8-40.9 21.1 12.5 12.8 57.4-8.4 86.6z"/><path class="b" d="m1756.5 996c-2 0-3.7-1.6-3.7-3.5-11.5-219.9 71.8-390.9 72.7-392.5 0.9-1.9 3.1-2.6 4.9-1.7 1.8 0.9 2.6 3.2 1.7 5-0.8 1.7-83.3 171-72 388.9 0.2 1.9-1.3 3.8-3.5 3.8q-0.1 0-0.1 0z"/><path class="b" d="m1787.3 721.6q-0.3 0-0.4-0.2c-2-0.1-3.5-2-3.4-3.9 0.2-0.5 4.1-48.5-28.7-64.2-1.9-0.8-2.6-3.1-1.7-4.9 0.9-1.8 3.1-2.6 4.9-1.8 37.6 18 33.1 69.3 33 71.6-0.3 1.9-1.8 3.4-3.7 3.4z"/><path class="b" d="m1760.3 862.7c-1.9 0-3.5-1.5-3.7-3.5 0-0.4-4.3-46-44.3-58.6-1.8-0.6-3-2.8-2.3-4.8 0.6-2 2.6-3 4.6-2.4 44.8 14.2 49.3 64.8 49.5 65.2 0.2 2.2-1.4 3.8-3.5 4q-0.2 0.1-0.3 0.1z"/><path class="b" d="m1768.4 805.9q-0.5 0-0.9-0.1c-2-0.5-3.2-2.5-2.8-4.5 17.4-70.6 72.3-68.7 72.7-68.7 2.2 0 3.7 1.8 3.7 3.8-0.2 2-1.8 3.7-4 3.5-2 0-49.3-1.2-65.1 63.3-0.4 1.6-1.9 2.7-3.6 2.7z"/><path class="a" d="m1910.8 963.7c0 45.6-21 86.4-53.7 113.4-2.4 2-5.2 2.9-7.9 2.9h-176c-2.9 0-5.5-0.9-7.9-2.9-32.7-27-53.7-67.8-53.7-113.4 0-14.5 2.2-28.4 6.1-41.5q0-0.2 0-0.2c2.2-7.5 7.8-12.2 13.8-12.2h259.3c6.1 0 11.6 4.7 13.9 12.2q0 0 0 0.2c3.9 13.1 6.1 27 6.1 41.5z"/><path class="c" d="m1910.3 974.6c-85.2 27.6-169.3 60.2-250.9 97.5 1 0.9 2 1.8 3.1 2.6 80.5-36.6 163.5-68.8 247.4-96.1q0.3-2 0.4-4z"/><path class="c" d="m1856.8 909.8h-6.4c-68.6 48.4-135.3 100.8-200.3 152.8q1.2 1.4 2.5 2.7c66.3-53 134.3-106.3 204.2-155.5z"/><path class="c" d="m1815.1 1080c30.9-25.2 61-51.3 90.5-78.1q0.9-3.2 1.7-6.5c-31.8 29.1-64.7 57.4-98 84.6z"/><path class="c" d="m1815.3 909.8c-70 22.9-135.7 59.3-197 97.5q0.7 1.8 1.3 3.6c64.4-40.3 133.8-78.5 208.1-101.1z"/><path class="c" d="m1613.9 938.5q29.7-15.7 60.7-28.7h-9.3c-17.2 7.5-34 15.4-50.5 24q-0.4 2.4-0.9 4.7z"/><path class="c" d="m1706.2 909.8h-5.5l-86.6 80.1q0.3 2.1 0.7 4.2z"/><path class="d" d="m1217.7 896.8v0.6h-1214.7v-0.6z"/><path class="d" d="m784.1 930.7v0.6h-80.4v-0.6z"/><path class="d" d="m1013.1 924.1v0.6h-21.1v-0.6z"/><path class="d" d="m966.5 913.4v0.6h-167.4v-0.6z"/><path class="d" d="m550 927.7v0.6h-73.6v-0.6z"/><path class="d" d="m454.7 927.7v0.6h-46.7v-0.6z"/><path class="d" d="m244.2 917.4v0.6h-113.8v-0.6z"/><path fill-rule="evenodd" class="d" d="m578.8 788.5h-469.1c-7.7 0-13.9-6.3-13.9-13.9v-659.4c0-7.7 6.2-13.9 13.9-13.9h469.1c7.7 0 13.9 6.2 13.9 13.9v659.4c0 7.6-6.2 13.9-13.9 13.9zm-469.1-686.6c-7.3 0-13.3 6-13.3 13.3v659.4c0 7.3 6 13.3 13.3 13.3h469.1c7.3 0 13.3-6 13.3-13.3v-659.4c0-7.3-6-13.3-13.3-13.3z"/><path fill-rule="evenodd" class="d" d="m1104.3 788.5h-469.1c-7.7 0-13.9-6.3-13.9-13.9v-659.4c0-7.7 6.2-13.9 13.9-13.9h469.1c7.7 0 13.9 6.2 13.9 13.9v659.4c0 7.6-6.2 13.9-13.9 13.9zm-469.1-686.6c-7.3 0-13.3 6-13.3 13.3v659.4c0 7.3 6 13.3 13.3 13.3h469.1c7.3 0 13.3-6 13.3-13.3v-659.4c0-7.3-6-13.3-13.3-13.3z"/><path class="e" d="m556 157.2v380.9h-413.7v-380.9z"/><path class="f" d="m551.8 157.2v380.9h-419.3v-380.9z"/><path class="g" d="m534.1 176.3v342.7h-384v-342.7z"/><path class="c" d="m486.7 519l-129.2-342.7h-54.3l129.1 342.7z"/><path class="c" d="m416.9 519l-129.2-342.7h-37.4l129.1 342.7z"/><path class="e" d="m301.1 176.3v342.7h-21v-342.7z"/><path class="e" d="m418.2 176.3v342.7h-21v-342.7z"/><path class="f" d="m297.3 162.1v369h-26.5v-369z"/><path class="f" d="m414.4 162.1v369h-26.6v-369z"/><path class="e" d="m152 176.3v342.7h-1.9v-342.7z"/><path class="d" d="m1086.2 160.7v297.7h-425.6v-297.7z"/><path class="h" d="m1089.8 160.7v297.7h-3.6v-297.7z"/><path class="c" d="m1071.3 175.6v267.9h-395.8v-267.9z"/><path class="h" d="m678.5 175.6v267.9h-3v-267.9z"/><path class="f" d="m1024.2 204.5v135.8h-96.7v-135.8z"/><path class="f" d="m803.2 229.7v135.8h-96.7v-135.8z"/><path class="d" d="m957.3 263.5v135.8h-96.7v-135.8z"/><path class="f" d="m824.7 269.4v37.8h-37.7v-37.8z"/><path class="i" d="m813.8 346.6v37.8h-37.8v-37.8z"/><path class="h" d="m1014.3 896.8c-9.6 0-17.4-7.8-17.4-17.4 0-9.7 7.8-17.5 17.4-17.5 9.7 0 17.5 7.8 17.5 17.5 0 9.6-7.8 17.4-17.5 17.4z"/><path class="h" d="m1043.8 896.8c-9.6 0-17.5-7.8-17.5-17.4 0-9.7 7.9-17.5 17.5-17.5 9.7 0 17.5 7.8 17.5 17.5 0 9.6-7.8 17.4-17.5 17.4z"/><path class="h" d="m561.4 896.8c-9.6 0-17.4-7.8-17.4-17.4 0-9.7 7.8-17.5 17.4-17.5 9.7 0 17.5 7.8 17.5 17.5 0 9.6-7.8 17.4-17.5 17.4z"/><path class="h" d="m590.9 896.8c-9.7 0-17.5-7.8-17.5-17.4 0-9.7 7.8-17.5 17.5-17.5 9.6 0 17.4 7.8 17.4 17.5 0 9.6-7.8 17.4-17.4 17.4z"/><path class="d" d="m1068.4 509.6v372.2h-41.3v-372.2z"/><path class="f" d="m1027.1 509.6v372.2h-486.7v-372.2z"/><path class="d" d="m1011.3 524.8v341.7h-455.1v-341.7z"/><path class="f" d="m1004.8 668.5v191.7h-442.1v-191.7z"/><path class="f" d="m1004.8 532v131.7h-442.1v-131.7z"/><path class="d" d="m643.1 671.8h281.3c1.8 0 3.2-1.5 3.2-3.3 0-1.8-1.4-3.2-3.2-3.2h-281.3c-1.7 0-3.2 1.4-3.2 3.2 0 1.8 1.5 3.3 3.2 3.3z"/><path class="d" d="m643.1 535.3h281.3c1.8 0 3.2-1.5 3.2-3.3 0-1.8-1.4-3.2-3.2-3.2h-281.3c-1.7 0-3.2 1.4-3.2 3.2 0 1.8 1.5 3.3 3.2 3.3z"/><path class="f" d="m372.6 706.8v190h-214.3v-190z"/><path class="d" d="m455.9 706.8v190h-83.3v-190z"/><path class="d" d="m377.2 673.4v33.4h-229.5v-33.4z"/><path class="h" d="m466.5 673.4v33.4h-89.3v-33.4z"/><path class="f" d="m610.4 1006.5c-260.5 0-471.1-12.3-471.1-27.5 0-15.2 210.6-27.5 471.1-27.5 260.5 0 471 12.3 471 27.5 0 15.2-210.5 27.5-471 27.5z"/><path class="c" d="m1842.2 388.8v58.2"/><path class="a" d="m1845 388.8v58.2h-5.7v-58.2z"/><path class="c" d="m1842.2 222v126.1"/><path class="a" d="m1845 222v126.1h-5.7v-126.1z"/><path class="j" d="m1783.3 945h-1361.2c-22.3 0-40.6-18.9-40.6-42v-758c0-23.1 18.3-42.1 40.6-42.1h1361.2c22.3 0 40.6 19 40.6 42.1v758c0 23.1-18.3 42-40.6 42z"/><path fill-rule="evenodd" class="a" d="m1783.3 948h-1361.2c-24 0-43.5-20.2-43.5-45v-758c0-24.8 19.5-45 43.5-45h1361.2c24 0 43.4 20.2 43.4 45v758c0 24.8-19.4 45-43.4 45zm-1361.2-842.1c-20.8 0-37.8 17.6-37.8 39.1v758c0 21.5 17 39.1 37.8 39.1h1361.2c20.8 0 37.8-17.6 37.8-39.1v-758c0-21.5-17-39.1-37.8-39.1z"/><path class="b" d="m335.4 179.6c-18-2.7-22.1 13.6-40.9 13 2.9 9.8 12.8 14 12.8 14 0 0-15 10.9-11.7 27.2 11.8-13.3 27.6-0.7 44.7-1.2 35.7-1.1 48.5-17.6 36.2-31.8 11.5-14.5-19.9-22.3-19.2-33.1-3.6 1.7-3.4 8.6-3.4 8.6 0 0-13 1.1-24.1-8-0.5 6.7 5.6 11.3 5.6 11.3z"/><path class="b" d="m369.8 200.1c8 1.6 13.1-4.4 13.2-9.4 5.7 12-3.1 18.5-13.2 9.4z"/><path class="k" d="m386.6 931.8l-16.9 9.7-24.9-37.5 16.9-9.8z"/><path class="b" d="m367.7 940.1l19-11c0.7-0.4 1.5-0.2 1.9 0.5l9.6 14.3c1 1.5 0.4 3.8-1.2 4.7-6.7 3.7-10.1 5.2-18.4 10-5.1 2.9-23.7 12.9-37.4 11.8-8-0.6-8.2-7.9-4.7-8.7 15.4-3.6 26.3-12.4 28.9-18.9 0.4-1.2 1.3-2.1 2.3-2.7z"/><path class="l" d="m361.7 894.2l-16.9 9.8 12.8 19.3 17-9.7z"/><path class="a" d="m267.8 458.4c0 0-40.9 160.9-45.2 216.5-4.7 60.9 124.7 246.3 124.7 246.3l31.7-16.5c0 0-59.9-105.8-99.9-225.4 19.4-62.6 58.1-215.6 58.1-215.6z"/><g style="opacity:.3"><path class="c" d="m267.8 458.4c0 0-40.9 160.9-45.2 216.5-4.7 60.9 124.7 246.3 124.7 246.3l31.7-16.5c0 0-59.9-105.8-99.9-225.4 19.4-62.6 58.1-215.6 58.1-215.6z"/></g><path class="m" d="m304 521.6c-16 28.2-21.4 95.4-17.3 132.1 11.2-39.1 25.4-92.8 35.9-133.1-7.1-5.4-14-6.9-18.6 1z"/><path class="a" d="m380.1 904.6l-33.9 17.7-9.8-11.4 40.2-17.8z"/><path fill-rule="evenodd" class="a" d="m359.7 947.4q-1.3-0.3-1.7-1.8-0.3-1 0.2-1.7c1.6-2 8.3-1.5 9.1-1.4 0.1 0 0.3 0.1 0.4 0.3 0 0.2 0 0.3-0.2 0.5-1 0.9-2.6 2.3-4.1 3.2-1.3 0.7-2.6 1.2-3.7 0.9zm-0.8-2.9q-0.2 0.3-0.1 0.8 0.4 1 1.1 1.2c1.3 0.4 3.6-0.8 6.2-3.2-2.7-0.1-6.3 0.1-7.2 1.2z"/><path fill-rule="evenodd" class="a" d="m367.2 943.4c-2.2 0-6.8-2.1-7.5-4.1-0.2-0.8 0-1.5 0.8-2q0.9-0.7 1.9-0.5c2.7 0.7 5.1 5.7 5.2 5.9q0.1 0.3 0 0.5 0 0.1-0.1 0.1-0.1 0.1-0.3 0.1zm-6.2-5.4c-0.5 0.4-0.5 0.7-0.4 1 0.4 1.3 3.7 3 5.8 3.4-0.8-1.6-2.6-4.3-4.2-4.7q-0.5-0.1-1 0.2-0.1 0-0.2 0.1z"/><path class="k" d="m296.7 320.3l-17.6 30.3c-2.8 5-5.7 10-8.3 14.9-1.3 2.5-2.6 5-3.7 7.3-1.1 2.3-2.1 4.7-2.6 5.9l-0.9-9c0.2 1.1 0.4 2.3 0.6 3.3 0.2 1 0.4 2.1 0.6 3.1q0.3 1.5 0.6 2.9l0.3 1.4q0.1 0.4 0.1 0.7c0 0.1 0.1 0.3 0 0.4-0.1 0.1 0.1 0.2-0.5 0.2 4.3 0.7 7.2 4.7 6.5 8.9-0.6 4.3-4.6 7.2-8.9 6.6-1-0.1-1.2-0.1-1.7-0.1l-1.2-0.1q-1.1-0.1-2.2-0.2c-1.4-0.3-2.7-0.7-4-1.2-2.5-0.9-4.7-2.2-6.7-3.7-2-1.5-3.8-3.1-5.4-4.9-0.7-0.9-1.4-1.8-2.2-2.7-0.6-0.9-1.2-1.8-1.9-2.8-1.4-2.1-1.8-4.6-1.3-6.9l0.4-2.1c0.9-4.6 2.1-7.7 3.2-11 1.2-3.2 2.5-6.1 3.7-9 2.6-5.8 5.2-11.4 8.1-16.9 2.7-5.4 5.7-10.8 8.7-16.1 3-5.3 6-10.4 9.4-15.6v-0.1c4.7-7.3 14.5-9.4 21.8-4.7 7.1 4.6 9.3 14 5.1 21.2z"/><path class="b" d="m286.9 291c19.8-1.5 29.5 12.5 20.1 35.5-5.2 12.7-13.4 27.8-19.3 38.3-1.6 2.8-3 5.3-4.2 7.3l-39.7-30.9c7.7-18.2 29.8-49.2 43.1-50.2z"/><path class="n" d="m282.6 313.5c13.1-8.5-5.2 31.4-12.7 48l-11.6-9.1c3.1-11.8 14.2-32.3 24.3-38.9z"/><path class="k" d="m338 959.3l-19.4-1.4 0.5-45.2 19.5 1.5z"/><path class="b" d="m317.7 955.5l21.8 1.7c0.8 0.1 1.4 0.7 1.4 1.4l-0.1 17.4c-0.1 1.8-1.9 3.3-3.7 3.2-7.6-0.7-11.2-1.5-20.7-2.2-5.9-0.4-31.1-1.7-39.2-2.4-8-0.6-7.4-8.6-3.9-9.1 15.7-2.1 35.2-5.1 41-9 1-0.7 2.3-1.1 3.4-1z"/><path class="l" d="m338.6 914.2l-19.5-1.5-0.2 23.3 19.4 1.5z"/><path class="a" d="m305.7 461.3c0 0-11.9 147.3-12.6 203.1-0.7 61.2 17.8 265.4 17.8 265.4l35.6 2.7c0 0-2.7-198.1 3.6-258.2 6.8-65.2 21.5-208 21.5-208z"/><path class="o" d="m305.7 461.3c0 0-11.9 147.3-12.6 203.1-0.7 61.2 17.8 265.4 17.8 265.4l35.6 2.7c0 0-2.7-198.1 3.6-258.2 6.8-65.2 21.5-208 21.5-208z"/><path class="a" d="m347.9 932.6l-38.4-2.9-1.2-13.7 42.2 5.3z"/><path fill-rule="evenodd" class="a" d="m307 957.1q-0.8-1-0.4-2.5 0.3-0.9 1.2-1.2c2.4-0.8 7.7 3.4 8.2 3.9 0.2 0.1 0.2 0.3 0.2 0.5 0 0.1-0.2 0.3-0.4 0.3-1.4 0.2-3.4 0.4-5.2 0.3-1.5-0.1-2.8-0.5-3.6-1.3zm1.1-2.8q-0.4 0.1-0.6 0.6-0.3 1 0.2 1.6c0.9 1 3.4 1.3 6.9 0.8-2.1-1.6-5.2-3.4-6.5-3z"/><path fill-rule="evenodd" class="a" d="m315.5 958c-1.8-1.3-4.5-5.6-3.9-7.6 0.2-0.8 0.9-1.2 1.8-1.3q1.1 0 1.8 0.8c1.9 2 1 7.6 1 7.8q0 0.3-0.3 0.4-0.1 0-0.2 0-0.1 0-0.2-0.1zm-2.1-8c-0.7 0.1-0.8 0.4-0.9 0.6-0.4 1.4 1.3 4.6 2.9 6.2 0.2-1.9 0.3-5.1-0.8-6.3q-0.4-0.4-1-0.5-0.1 0-0.2 0z"/><path class="a" d="m267.8 458.4l103.8 7.9c1.4-9.2 1.3-39.5 5.5-77.9 2.9-25.7 7.6-55 16.1-83.9q0.9-3.1 1.9-6.1c0 0-5.2-1.5-12.7-3.2-6.2-1.4-13.9-2.9-21.6-3.9-13.2-1.6-32.4-3.5-44.1-3.3-6.9 0.1-13.6 0.7-18.9 1.3-6.9 0.8-10.9 1.7-10.9 1.7 0 0-22.7 55.6-19.1 167.4z"/><path class="k" d="m272.4 379.5c0 0 4-5.8 7.7-7.5 2.6-1.3 4.6-2.6 5.8-3.4 0.8-0.5 1.9 0.1 2 1.1 0.1 1.5-0.7 3.9-4.8 7.3-0.6 4.7-8 9.5-8 9.5z"/><path class="n" d="m287.4 392.3l21.5 1.7-11.7-43.7-21.5-1.7z"/><path class="c" d="m285.9 392.2l21.6 1.7-11.7-43.7-21.6-1.7z"/><path class="n" d="m377.1 388.5c2.9-25.8 7.6-55.1 16.1-84-6.9-1.1-18.8-1.3-21.5 9.7-3 11.9-2.2 40.5 5.4 74.3z"/><path class="k" d="m402.4 313.5c1.1 3.4 1.9 6.4 2.8 9.5 0.8 3.1 1.6 6.3 2.3 9.4 1.4 6.3 2.6 12.7 3.5 19.1 0.9 6.5 1.6 13.1 1.8 19.8 0.3 6.8 0.1 13.7-0.9 20.9l-0.1 0.8c-0.4 3.1-1.8 5.7-3.8 7.7-1.7 1.7-3.3 2.8-4.8 3.6-1.4 0.8-2.8 1.5-4 1.9-2.5 0.9-4.7 1.4-6.7 1.8-4.1 0.7-7.7 0.9-11.2 1-6.9 0.1-13.4-0.5-19.8-1.2-6.5-0.7-12.7-1.8-18.9-3-6.3-1.3-12.3-2.7-18.5-4.5-4.2-1.2-6.6-5.6-5.4-9.8 1-3.4 4.1-5.6 7.5-5.7h0.2l18.1-0.2c6-0.1 12-0.2 17.9-0.5 5.8-0.2 11.6-0.7 16.9-1.5 2.7-0.4 5.2-0.9 7.1-1.5 1-0.3 1.8-0.7 2.1-0.9 0.3-0.1 0.2-0.2 0.1-0.1-0.1 0-0.5 0.2-1.1 0.8l-3.9 8.4c0.1-5-0.3-10.4-0.8-15.9q-1-8.3-2.7-16.8c-1.1-5.6-2.3-11.3-3.7-17-0.6-2.9-1.3-5.7-2-8.5l-2.2-8.3-0.1-0.5c-2.2-8.4 2.8-17 11.3-19.2 8.1-2.1 16.4 2.5 19 10.4z"/><path class="b" d="m395.1 298.4c-19-6-30.4 6.2-27.2 30.9 1.7 13.7 6.6 30.1 10.2 41.7l41.8-12.9c-3.6-19.5-12.1-55.8-24.8-59.7z"/><path class="k" d="m318.8 288c13-2.1 15.8-9.9 15.5-18.7 0-2.1-0.2-4.3-0.5-6.5l17-12.2 12.4-8.9c-4.2 14-9.7 39.6-0.7 49.9 0 0-17.4 12.8-38.6 21-3.3 1.3-7.2-0.4-8.2-3.8-4.1-13.2 3.1-20.8 3.1-20.8z"/><path class="l" d="m333.8 262.8c0.3 2.2 0.5 4.4 0.5 6.5 6.1-0.7 15.5-5.4 16.9-12.1 0.4-2.2-0.4-5-0.4-6.6z"/><path class="k" d="m364.2 213c0.9 19.3 2.5 30.6-6.1 41.8-12.9 16.8-37.4 11.2-44-7.4-6-16.7-6.5-45.5 11.4-55.7 17.5-10.1 37.8 1.9 38.7 21.3z"/><path class="b" d="m356.1 201.2c-5.4 9.9-1.3 17.2-1.3 17.2l1-4.7c0 0 6.9 7.3 5 15.7 12-6.4 13.4-31.4-4.7-28.2z"/><path class="b" d="m366.2 204.2c-21.9 4.8-34.2 2.6-38 1.7 9.1-0.6 11.5-4.7 11.5-4.7 0 0-21.8 5.3-26.3 3.6 4.4-13.3 14.6-19.4 35.3-18.6 20.7 0.8 17.5 18 17.5 18z"/><path class="k" d="m373.5 231c-2.2 4.8-6.1 8.3-9.7 9.9-5.5 2.5-8.2-2.5-6.7-8.4 1.4-5.4 6-13.1 11.5-13.1 5.4 0.1 7.5 6.1 4.9 11.6z"/><path class="b" d="m334 225.4c-1 0-1.8-1.3-1.8-2.9 0-1.5 0.8-2.8 1.8-2.8 1.1 0 1.9 1.3 1.9 2.8 0 1.6-0.8 2.9-1.9 2.9z"/><path class="b" d="m316.5 227.8c-1 0-1.9-1.3-1.9-2.9 0-1.5 0.9-2.8 1.9-2.8 1 0 1.9 1.3 1.9 2.8 0 1.6-0.9 2.9-1.9 2.9z"/><path class="p" d="m324 224.7c0 0-2.6 9.5-6 14.4 3.1 2.2 7.6 0.4 7.6 0.4z"/><path class="b" d="m332.4 242.8c6-1.5 8.3-6.1 8.4-6.3 0.1-0.3 0-0.6-0.2-0.7-0.2-0.1-0.5 0-0.6 0.2 0 0.1-2.7 5.3-9.5 6.3-0.3 0-0.5 0.2-0.4 0.5 0 0.2 0.3 0.4 0.5 0.4q1-0.2 1.8-0.4z"/><path class="b" d="m340.7 215.8q0.2 0 0.4-0.2c0.4-0.3 0.4-0.9 0-1.3-3.5-3.6-7.7-2.8-7.8-2.8-0.5 0.1-0.9 0.6-0.8 1.1 0.2 0.5 0.6 0.8 1.1 0.7 0.2 0 3.4-0.6 6.2 2.3 0.2 0.2 0.6 0.3 0.9 0.2z"/><path class="b" d="m310.1 219.6c0.3 0 0.5-0.3 0.7-0.6 1.3-3.9 4.6-4.8 4.7-4.8 0.5-0.2 0.7-0.7 0.6-1.2-0.1-0.5-0.6-0.7-1.1-0.6-0.2 0-4.3 1.2-6 6-0.2 0.5 0.1 1 0.6 1.2q0.3 0.1 0.5 0z"/><path class="k" d="m330.5 386.6l-19.9-12.4 1.8 24.5c0 0 16.7 6 19-2.8z"/><path class="k" d="m316.9 378.2c0 0-4.1-5.8-7.9-7.6-2.6-1.2-5.1-3.5-6.3-4.3-0.8-0.5-1.9 0.1-2 1.1 0 1.5 1.3 4.9 5.4 8.2 0.7 4.8 8.3 9.5 8.3 9.5z"/><path class="k" d="m293.3 376.3l1.8 15.3c0.1 1.4 1.1 2.5 2.4 2.8l14.9 4.3-1.9-24.2-13.5-1.8c-2.1-0.2-3.9 1.5-3.7 3.6z"/><path class="k" d="m262.9 383.4l17.2-8.7-0.4 21.6c0 0-17.9 5.3-19-3.8z"/><path class="k" d="m287.7 375.5v17c0 1-0.6 1.8-1.6 2.1l-6.4 1.7 0.4-21.6 4.9-1.3c1.4-0.3 2.7 0.7 2.7 2.1z"/></svg>