<svg version="1.2" xmlns="http://www.w3.org/2000/svg" viewBox="0 0 295 94" width="200px"
    class="login_logo_img">
    <path fill="#FFFFFF" d="m6.2 12.9v67.5c0 3.3 2.7 5.9 5.9 5.9h201v-79.4h-200.9c-3.3 0-6 2.7-6 6z"></path>
    <path fill="#162E54" fill-rule="evenodd"
        d="m292.5 12.6v68c0 4.7-3.8 8.5-8.5 8.5h-272.1c-4.7 0-8.5-3.8-8.5-8.5v-68c0-4.7 3.8-8.5 8.5-8.5h272.1c4.7 0 8.5 3.8 8.5 8.5zm-79.3 73.7v-79.3h-201c-3.3 0-6 2.6-6 5.9v67.5c0 3.3 2.7 5.9 6 5.9 0 0 201 0 201 0z"></path>
    <path fill="#E21F26" opacity=".5"
        d="m42.8 46.1l21.5 11.7c0.7 0.4 0.7 1.3 0 1.7l-20.4 13.5c-0.4 0.2-0.8 0.3-1.1 0.1l-21.5-11.8c-0.7-0.3-0.7-1.3-0.1-1.7l20.5-13.5c0.3-0.2 0.7-0.2 1.1 0z"></path>
    <g style="opacity: 0.2;">
        <use transform="matrix(.241,0,0,.242,-15.485,4.878)"></use>
    </g>
    <path fill="#E21F26" opacity=".5"
        d="m42.8 37.8l21.5 11.7c0.7 0.3 0.7 1.3 0 1.7l-20.4 13.5c-0.4 0.2-0.8 0.2-1.1 0.1l-21.5-11.8c-0.7-0.3-0.7-1.3-0.1-1.7l20.5-13.5c0.3-0.2 0.7-0.2 1.1 0z"></path>
    <g style="opacity: 0.2;">
        <use transform="matrix(.241,0,0,.241,-15.485,-4.002)"></use>
    </g>
    <path fill="#E21F26" opacity=".7"
        d="m42.8 28.9l21.5 11.8c0.7 0.3 0.7 1.3 0 1.7l-20.4 13.5c-0.4 0.2-0.8 0.2-1.1 0l-21.5-11.7c-0.7-0.4-0.7-1.3-0.1-1.7l20.5-13.5c0.3-0.2 0.7-0.3 1.1-0.1z"></path>
    <g style="opacity: 0.2;">
        <use transform="matrix(.241,0,0,.241,-15.485,-12.882)"></use>
    </g>
    <path fill="#E21F26" opacity=".7"
        d="m42.8 20.2l21.5 11.7c0.7 0.4 0.7 1.4 0 1.8l-20.4 13.5c-0.4 0.2-0.8 0.2-1.1 0l-21.5-11.7c-0.7-0.4-0.7-1.3-0.1-1.8l20.5-13.4c0.3-0.2 0.7-0.3 1.1-0.1z"></path>
    <path fill="#162E54"
        d="m91.5 27.3l-9.2 9.9 9.9 10.5v0.2h-4.8l-8.7-9.2v9.2h-3.9v-20.7h3.9v8.8l7.9-8.8h4.8v0.1z"></path>
    <path fill="#162E54"
        d="m112 27.3v11.8c0 6.1-3.8 9.3-9 9.3-4.9 0-9.1-3.1-9.1-9.3v-11.9h3.8v11.9c0 3.7 2.2 5.7 5.4 5.7 3.2 0 5-2.2 5-5.7v-11.9z"></path>
    <path fill="#162E54" fill-rule="evenodd"
        d="m133.2 33.2c0 1.6-0.8 3.2-2.7 4 2.4 0.8 3.3 3.3 3.3 4.6 0 4.6-3.4 6.1-7.7 6.1q-4.9 0-9.8 0v-20.7q4.9 0 9.8 0c4 0 7.1 1.9 7.1 6zm-13.1 2.3h6c2.4 0 3.2-1 3.2-2.2 0-0.9-0.7-2.5-3.2-2.5h-6zm0 8.7h6c1.6 0 3.9-0.5 3.9-2.5 0-1.8-2.3-2.8-3.9-2.8h-6z"></path>
    <path fill="#162E54" d="m144.6 35.8l5.5-8.6h4.7v0.2l-8.2 12v8.5h-3.9v-8.5l-8-12v-0.2h4.7z"></path>
    <path fill="#162E54"
        d="m162.5 30.8h-6.6v-3.6c6 0 11 0 17 0v3.6h-6.5v17.1h-3.9c0 0 0-17.1 0-17.1z"></path>
    <path fill="#162E54"
        d="m188.6 32.2c-0.7-1.2-2.6-2.3-4.8-2.3-2.9 0-4.3 1.2-4.3 2.8 0 1.8 2.1 2.3 4.6 2.6 4.3 0.5 8.3 1.6 8.3 6.6 0 4.6-4.1 6.5-8.7 6.5-4.2 0-7.4-1.3-9-5l3.3-1.7c0.9 2.3 3.3 3.3 5.8 3.3 2.4 0 4.8-0.9 4.8-3.1 0-2-2.1-2.8-4.8-3.1-4.3-0.5-8.2-1.6-8.2-6.2 0-4.3 4.2-6 8-6.1 3.3 0 6.6 1 8.2 4.1z"></path>
    <path fill="#E31F26" fill-rule="evenodd"
        d="m84.4 65.3h-1.7q-0.3 0-0.5-0.2-0.2-0.1-0.2-0.3l-0.6-1.7h-3.6l-0.5 1.7q-0.1 0.2-0.3 0.3-0.2 0.2-0.4 0.2h-1.7l3.6-9.4h2.2zm-3.4-3.6l-0.9-2.6q-0.1-0.2-0.2-0.6-0.1-0.3-0.2-0.7-0.1 0.4-0.2 0.7-0.1 0.4-0.2 0.6l-0.9 2.6z"></path>
    <path fill="#E31F26" fill-rule="evenodd"
        d="m94.2 55.9q1 0 1.7 0.2 0.7 0.2 1.2 0.6 0.5 0.5 0.7 1 0.2 0.6 0.2 1.2 0 0.7-0.2 1.3-0.3 0.6-0.7 1-0.5 0.4-1.2 0.7-0.7 0.2-1.7 0.2h-1.1v3.2h-2.2v-9.4c0 0 3.3 0 3.3 0zm0 4.6q0.9 0 1.3-0.5 0.3-0.4 0.3-1.1 0-0.3-0.1-0.6-0.1-0.2-0.3-0.4-0.2-0.2-0.5-0.3-0.3-0.1-0.7-0.1h-1.1v3c0 0 1.1 0 1.1 0z"></path>
    <path fill="#E31F26" fill-rule="evenodd"
        d="m108.2 55.9q1 0 1.7 0.2 0.7 0.2 1.2 0.6 0.5 0.5 0.7 1 0.2 0.6 0.2 1.2 0 0.7-0.2 1.3-0.3 0.6-0.7 1-0.5 0.4-1.2 0.7-0.7 0.2-1.7 0.2h-1.1v3.2h-2.2v-9.4c0 0 3.3 0 3.3 0zm0 4.6q0.9 0 1.3-0.5 0.3-0.4 0.3-1.1 0-0.3-0.1-0.6-0.1-0.2-0.3-0.4-0.2-0.2-0.5-0.3-0.3-0.1-0.7-0.1h-1.1v3c0 0 1.1 0 1.1 0z"></path>
    <path fill="#E31F26" d="m124.6 63.5v1.8l-5.7-0.1v-9.3h2.2v7.6z"></path>
    <path fill="#E31F26" d="m133.7 65.3h-2.2v-9.4h2.2z"></path>
    <path fill="#E31F26" fill-rule="evenodd"
        d="m149.7 65.3h-1.7q-0.2 0-0.4-0.2-0.2-0.1-0.3-0.3l-0.5-1.7h-3.6l-0.5 1.7q-0.1 0.2-0.3 0.3-0.2 0.2-0.5 0.2h-1.7l3.7-9.4h2.2zm-3.5-3.6l-0.8-2.6q-0.1-0.2-0.2-0.6-0.1-0.3-0.3-0.7 0 0.4-0.2 0.7-0.1 0.4-0.2 0.6l-0.8 2.6z"></path>
    <path fill="#E31F26"
        d="m164.5 55.9v9.3h-1.2q-0.2 0-0.4 0-0.2-0.1-0.3-0.3l-4.4-5.6q0 0.2 0 0.5 0 0.2 0 0.4v5.1h-1.9v-9.4h1.1q0.2 0 0.3 0 0.1 0 0.1 0 0.1 0.1 0.2 0.1 0.1 0.1 0.2 0.2l4.4 5.6q0-0.2 0-0.5 0-0.3 0-0.5v-4.9z"></path>
    <path fill="#E31F26"
        d="m178.4 62.8q0.1 0 0.2 0 0.1 0.1 0.1 0.1l0.9 1q-0.6 0.7-1.4 1.1-0.9 0.4-2.1 0.4-1 0-1.9-0.4-0.8-0.4-1.4-1-0.6-0.7-0.9-1.5-0.3-0.9-0.3-1.9 0-1.1 0.3-2 0.3-0.8 1-1.5 0.6-0.6 1.4-1 0.9-0.3 1.9-0.3 0.6 0 1 0 0.5 0.1 0.9 0.3 0.4 0.2 0.8 0.4 0.3 0.2 0.6 0.5l-0.8 1q0 0.1-0.1 0.2-0.1 0-0.3 0-0.1 0-0.2 0-0.1-0.1-0.2-0.2-0.2 0-0.3-0.1-0.1-0.1-0.3-0.2-0.2 0-0.5-0.1-0.2 0-0.6-0.1-0.5 0.1-1 0.2-0.4 0.2-0.7 0.6-0.4 0.4-0.5 1-0.2 0.5-0.2 1.2 0 0.8 0.2 1.3 0.2 0.6 0.5 1 0.4 0.3 0.8 0.5 0.5 0.2 1 0.2 0.3 0 0.5 0 0.3 0 0.5-0.1 0.2-0.1 0.4-0.2 0.2-0.1 0.4-0.3 0 0 0.1-0.1 0.1 0 0.2 0z"></path>
    <path fill="#E31F26" d="m188.5 57.5v2.2h3v1.6h-3v2.3h3.9v1.6h-6v-9.3h6v1.6h-3.9z"></path>
    <path fill="#FFFFFF" fill-rule="evenodd"
        d="m246.8 28.8l16 35.7h-8.7l-3.2-7.6h-16.6l-3.2 7.6h-8.5l16-35.8zm1.5 21.9l-5.7-13.7-5.7 13.7z"></path>
    <path fill="#FFFFFF" d="m269.1 28.8l8.2-0.1v35.8h-8.2z"></path>
</svg>