<svg version="1.2" xmlns="http://www.w3.org/2000/svg" viewBox="0 0 819 202" width="819" height="202"><style>.a{fill:#e30914}</style><path class="a" d="m7.8 33.9h40.2v-28.6h-40.2zm45.6 125h34.8v-153.5h-34.7zm40.5-125h40.4v-28.6h-40.4z"/><path fill-rule="evenodd" class="a" d="m235.6 155.8l38.7-114.8h-35.9l-17.1 64.2zm-75-114.8l38 106.5q0.3 0.8 0.4 1.5 0.2 0.8 0.4 1.5 0.1 0.8 0.2 1.6 0.1 0.7 0.1 1.5 0 1.7-0.4 3.4-0.3 1.7-1 3.3-0.7 1.5-1.8 2.9-1 1.4-2.2 2.6-1.4 0.7-2.9 1.3-1.4 0.5-3 0.8-1.5 0.3-3 0.4-1.6 0-3.1-0.1h-10.7v26.7h13.3c33-0.6 37.2-4.3 47.4-29.3l-35-124.6z"/><path fill-rule="evenodd" class="a" d="m346.1 77.6q2-2.4 4.5-4.2 2.5-1.8 5.5-2.9 2.9-1.1 6-1.5 3.1-0.3 6.2 0.1 0.9 0 1.8 0 0.9 0 1.8 0.1 0.9 0.1 1.8 0.2 0.9 0.2 1.8 0.3v-30.6q-0.8-0.1-1.5-0.2-0.8-0.1-1.6-0.2-0.7 0-1.5 0-0.8-0.1-1.5-0.1-3.3-0.4-6.6 0.1-3.2 0.4-6.3 1.7-3 1.2-5.7 3.2-2.6 2-4.7 4.6zm-39.9-36.4v117.6h34.1v-117.6z"/><path fill-rule="evenodd" class="a" d="m467.3 162.6c8-0.3 15.9-2.3 23.2-5.7 7.3-3.4 13.8-8.2 19.2-14.1 5.4-6 9.6-12.9 12.2-20.5 2.7-7.6 3.9-15.6 3.5-23.6 0.4-7.9-0.7-15.8-3.4-23.3-2.8-7.4-7-14.2-12.4-19.9-5.4-5.8-12-10.3-19.3-13.5-7.2-3.1-15.1-4.7-23-4.6v26.9c15 1.8 23.7 13.3 23.7 34.4 0 30.4-16.3 34.6-23.7 36.3zm-5.6-27.6c-7-1-24.4-4.4-24.4-35.3 0-6.7 0-32.1 24.4-35.4v-27c-8 0.1-16 1.8-23.3 5-7.4 3.3-14 7.9-19.5 13.8-5.4 5.8-9.7 12.8-12.4 20.3-2.8 7.5-4 15.5-3.5 23.6-0.6 8 0.6 16.1 3.3 23.6 2.7 7.6 6.9 14.6 12.4 20.4 5.5 5.9 12.2 10.6 19.6 13.8 7.4 3.2 15.3 4.8 23.4 4.8z"/><path fill-rule="evenodd" class="a" d="m596.2 49.1q2.8-2.4 6-4.2 3.2-1.9 6.6-3.1 3.5-1.3 7.1-1.9 3.6-0.6 7.3-0.6 3.3-0.1 6.6 0.4 3.2 0.5 6.4 1.4 3.1 1 6.1 2.5 3 1.4 5.7 3.3c2.8 2.4 5.4 5.1 7.6 8.1 2.2 3 4 6.2 5.4 9.7 1.3 3.4 2.3 7 2.8 10.7 0.5 3.7 0.5 7.4 0.1 11.1v72.4h-34.3v-70.9c0.4-2.5 0.3-5.1-0.4-7.5-0.7-2.4-2-4.7-3.6-6.6-1.7-1.9-3.7-3.5-6-4.5-2.3-1.1-4.8-1.6-7.4-1.6q-2.3-0.1-4.6 0.4-2.3 0.6-4.4 1.6-2.1 1.1-3.9 2.6-1.8 1.5-3.1 3.4zm-5.7-7.8v117.6h-33.9v-117.6z"/><path fill-rule="evenodd" class="a" d="m810.6 124.5q-0.9 2.5-2 4.8-1.1 2.4-2.4 4.7-1.3 2.2-2.7 4.4-1.5 2.1-3.2 4.2c-2.9 3.2-6.1 6.1-9.6 8.6-3.6 2.5-7.3 4.6-11.3 6.3-4 1.7-8.2 2.9-12.4 3.7-4.3 0.8-8.6 1.1-13 0.9-8.1 0.4-16.2-0.9-23.8-3.9-7.6-2.9-14.5-7.5-20.2-13.3-5.7-5.9-10.1-12.9-12.9-20.5-2.8-7.7-3.9-15.9-3.3-24-0.5-8.2 0.7-16.4 3.5-24.1 2.9-7.8 7.3-14.8 13-20.7 5.7-5.9 12.6-10.6 20.2-13.7 7.6-3.1 15.8-4.6 24-4.4 4.2-0.1 8.4 0.2 12.5 1.1 4.1 0.8 8.1 2.1 11.8 3.9 3.8 1.8 7.4 4 10.7 6.7q4.8 3.9 8.7 9 3.7 5.7 6.4 11.9 2.8 6.2 4.5 12.8 1.8 6.5 2.5 13.3 0.6 6.7 0.3 13.5h-77q-0.3-1.5-0.6-3-0.2-1.5-0.4-3-0.1-1.5-0.2-3.1-0.1-1.5-0.1-3-0.1-1.7 0-3.4 0-1.6 0.2-3.3 0.2-1.7 0.4-3.3 0.3-1.7 0.7-3.3h41.7q-0.3-1.6-0.7-3.2-0.4-1.6-1-3.2-0.6-1.5-1.4-3-0.8-1.4-1.7-2.8-1.6-2-3.6-3.5-2-1.6-4.3-2.7-2.4-1.1-4.9-1.6-2.5-0.5-5-0.4c-12.4 0-26.3 7.8-26.3 34.5 0 16.8 6.1 36.6 27.2 36.6q3.3 0.1 6.6-0.6c2.2-0.5 4.3-1.3 6.2-2.5 2-1.1 3.7-2.5 5.2-4.2 1.5-1.7 2.8-3.5 3.7-5.6z"/></svg>